<?xml version="1.0" encoding="utf-8"?>
<!-- Generator: Adobe Illustrator 23.0.5, SVG Export Plug-In . SVG Version: 6.00 Build 0)  -->
<svg version="1.1" id="Capa_1" xmlns="http://www.w3.org/2000/svg" xmlns:xlink="http://www.w3.org/1999/xlink" x="0px" y="0px"
	 viewBox="0 0 504 220.8" style="enable-background:new 0 0 504 220.8;" xml:space="preserve">
<style type="text/css">
	.st0{fill:#D7D7D7;}
	.st1{fill:#7C7C7D;}
	.st2{fill:#E30000;}
	.st3{fill:#ACACAC;}
	.st4{fill:#454545;}
	.st5{fill:#ED3237;}
	.st6{fill:#696969;}
	.st7{fill:none;}
	.st8{fill:#305DA9;}
	.st9{fill:#FFFFFF;}
	.st10{font-family:'MyriadPro-Regular';}
	.st11{font-size:3px;}
</style>
<g id="Capa_x0020_1">
	<path d="M435.1,164.1c-0.1-0.1-0.3-0.2-0.4-0.4c-5.8-6-12.8-9.1-21.1-9.3c-8.5-0.2-15.8,2.5-22,8.3c-0.4,0.4-0.7,0.7-1,1.1
		c-5.5,5.5-8.3,12.3-8.6,20.3c0,0.8,0,1.7,0.1,2.5c0.3,7.4,3.1,13.9,8.3,19.5c0.6,0.6,1.3,1.3,1.9,1.8c2.7,2.4,5.7,4.3,8.8,5.6
		c0.1,0.1,0.4,0.1,0.6,0.2l0.6,0.2c0.1,0,0.1,0,0.2,0.1c1.1,0.4,2.2,0.7,3.3,1l4.9,0.8c1,0,2.1,0,3.2,0l2.1-0.1
		c6.9-0.6,13-3.4,18.1-8.3c3.4-3.3,5.8-7.1,7.3-11.3l1.3-4.3l0.1-1.3c0.3-1.2,0.4-2.5,0.5-3.8c0-0.2,0-0.4,0-0.7
		C443.7,177.5,440.9,170.3,435.1,164.1L435.1,164.1z M425.9,172.6L425.9,172.6c0.2,0.1,0.4,0.3,0.6,0.4v0.1c3.4,3.6,5,7.8,4.9,12.8
		c0,3.5-0.8,6.6-2.5,9.3c-0.8,1.4-1.9,2.7-3.2,4.1c-3.7,3.5-8.1,5.2-13.3,5.2c-5.3-0.1-9.7-2-13.3-5.7c-1-1.3-2.1-2.4-2.8-3.5
		c-1.8-3-2.7-6.3-2.7-10c0-4.3,1.3-8,3.9-11.4c0.5-0.6,1-1.2,1.7-1.8c0.2-0.1,0.4-0.4,0.7-0.5c2.9-2.7,6.3-4.2,10.2-4.6
		c0.8-0.1,1.6-0.2,2.4-0.1c4.3,0.1,8.1,1.4,11.3,4C424.7,171.3,425.3,171.9,425.9,172.6L425.9,172.6z"/>
	<path class="st0" d="M426.5,173.1c-0.2-0.1-0.4-0.3-0.6-0.4c-0.6-0.7-1.3-1.3-2-1.8c-3.2-2.6-6.9-3.9-11.3-4
		c-0.8-0.1-1.6,0-2.4,0.1c-3.9,0.4-7.3,1.8-10.2,4.6c-0.2,0.1-0.4,0.4-0.7,0.5c-0.7,0.7-1.2,1.3-1.7,1.8c-2.6,3.3-3.9,7-3.9,11.4
		c0,3.7,0.8,7,2.7,10c0.7,1.1,1.8,2.3,2.8,3.5c3.6,3.7,8,5.6,13.3,5.7c5.2,0.1,9.6-1.6,13.3-5.2c1.3-1.3,2.4-2.7,3.2-4.1
		c1.7-2.7,2.5-5.8,2.5-9.3C431.5,180.9,429.9,176.7,426.5,173.1L426.5,173.1L426.5,173.1z M408.6,179.3L408.6,179.3
		c0,0.4-0.1,0.8-0.4,1.2c-0.4,0.5-0.8,0.7-1.5,0.7c-0.4,0-0.7,0-1-0.1c-0.1-0.1-0.4-0.2-0.6-0.4c-0.1-0.2-0.2-0.7-0.2-1.5
		c0-1.3,0.7-1.9,1.8-1.8C407.9,177.5,408.6,178.2,408.6,179.3L408.6,179.3z M411.3,178.7L411.3,178.7c-0.1-0.1-0.4-0.4-0.6-0.4
		c-0.1-0.1-0.3-0.7-0.3-1.5c0-1.3,0.7-1.8,1.8-1.8c1.3,0.1,1.8,0.7,1.8,1.8c0,0.5-0.1,1-0.4,1.4c-0.4,0.4-0.8,0.6-1.4,0.6
		C411.8,178.9,411.5,178.9,411.3,178.7L411.3,178.7z M402,186.4L402,186.4c-0.1-0.7-0.3-1-0.3-1c0-1.3,0.7-1.8,1.8-1.8
		c1.3,0.1,1.8,0.7,1.8,1.8c0,0.5-0.1,1-0.4,1.3c-0.3,0.4-0.8,0.7-1.4,0.7C402.8,187.4,402.3,187.1,402,186.4L402,186.4z
		 M419.2,180.1L419.2,180.1c-0.4,0.4-0.9,0.7-1.4,0.7c-0.4,0-0.7-0.1-1-0.2c-0.4-0.1-0.6-0.3-0.7-0.4c-0.1-0.2-0.1-0.7-0.1-1.5
		c0-1.3,0.6-1.9,1.8-1.8c1.2,0.1,1.8,0.8,1.8,1.9C419.6,179.2,419.4,179.7,419.2,180.1L419.2,180.1z M419.2,185.4L419.2,185.4
		c0-1,0.6-1.5,1.8-1.6c1.3-0.1,1.8,0.4,1.8,1.7c0,0.4-0.1,0.9-0.4,1.3c-0.4,0.4-0.7,0.7-1.3,0.7c-0.7,0-1.3-0.3-1.5-1
		C419.2,185.7,419.2,185.4,419.2,185.4L419.2,185.4z M420.9,193L420.9,193c0,0.4-0.1,0.7-0.4,1.2c-0.4,0.5-0.8,0.7-1.3,0.7
		c-0.7,0-1.3-0.3-1.6-0.8c-0.1-0.4-0.2-0.7-0.2-1.1c0-1.3,0.6-1.8,1.8-1.8C420.3,191.3,420.9,191.9,420.9,193L420.9,193z M415,195.8
		L415,195.8c0,0.5-0.1,0.9-0.4,1.3c-0.3,0.4-0.8,0.7-1.4,0.7c-0.4,0-0.7-0.1-0.9-0.1c-0.2-0.2-0.4-0.3-0.7-0.5
		c-0.1-0.1-0.3-0.6-0.3-1.4c0-1.3,0.7-1.8,1.8-1.7C414.4,194.1,415,194.7,415,195.8L415,195.8z M407.7,194.2L407.7,194.2
		c-0.4,0.5-0.9,0.7-1.5,0.7c-0.8,0-1.4-0.3-1.6-0.8c-0.1-0.3-0.1-0.7-0.1-1.1c0-1.3,0.6-1.8,1.8-1.8c1.2,0.1,1.8,0.7,1.8,1.8
		C408.2,193.4,407.9,193.8,407.7,194.2L407.7,194.2z"/>
	<path d="M408.2,180.5c0.3-0.4,0.4-0.7,0.4-1.2c0-1.1-0.7-1.8-1.8-1.8c-1.2-0.1-1.8,0.4-1.8,1.8c0,0.8,0.1,1.3,0.2,1.5
		c0.2,0.1,0.4,0.2,0.6,0.4c0.2,0.1,0.6,0.1,1,0.1C407.4,181.2,407.8,181,408.2,180.5L408.2,180.5z"/>
	<path d="M410.7,178.3c0.2,0.1,0.4,0.3,0.6,0.4c0.2,0.1,0.5,0.1,1,0.1c0.6,0,1-0.2,1.4-0.6c0.3-0.4,0.4-0.9,0.4-1.4
		c0-1.1-0.6-1.7-1.8-1.8c-1.2-0.1-1.8,0.5-1.8,1.8C410.4,177.5,410.5,178.1,410.7,178.3L410.7,178.3z"/>
	<path d="M401.7,185.4c0,0,0.1,0.4,0.3,1c0.3,0.7,0.8,1,1.5,1c0.6,0,1.1-0.3,1.4-0.7c0.3-0.3,0.4-0.7,0.4-1.3c0-1.2-0.6-1.7-1.8-1.8
		C402.3,183.5,401.7,184.1,401.7,185.4L401.7,185.4z"/>
	<path d="M417.8,180.8c0.5,0,1-0.3,1.4-0.7c0.3-0.4,0.4-0.8,0.4-1.2c0-1.1-0.7-1.8-1.8-1.9c-1.2-0.1-1.8,0.5-1.8,1.8
		c0,0.7,0.1,1.3,0.1,1.5c0.1,0.1,0.3,0.2,0.7,0.4C417,180.7,417.3,180.8,417.8,180.8L417.8,180.8z"/>
	<path d="M420.9,183.7c-1.2,0.1-1.8,0.7-1.8,1.6c0,0,0.1,0.4,0.2,1c0.3,0.7,0.8,1,1.5,1c0.6,0,1-0.3,1.3-0.7
		c0.4-0.4,0.4-0.8,0.4-1.3C422.7,184.2,422.2,183.7,420.9,183.7L420.9,183.7z"/>
	<path d="M420.5,194.2c0.3-0.4,0.4-0.8,0.4-1.2c0-1.1-0.6-1.8-1.8-1.8c-1.3-0.1-1.8,0.4-1.8,1.8c0,0.4,0.1,0.7,0.2,1.1
		c0.3,0.5,0.9,0.8,1.6,0.8C419.7,194.9,420.1,194.7,420.5,194.2L420.5,194.2z"/>
	<path d="M414.5,197.1c0.3-0.4,0.4-0.7,0.4-1.3c0-1.1-0.6-1.7-1.8-1.8c-1.2-0.1-1.8,0.4-1.8,1.7c0,0.8,0.1,1.3,0.3,1.4
		c0.3,0.2,0.4,0.3,0.7,0.5c0.1,0.1,0.5,0.1,0.9,0.1C413.7,197.8,414.2,197.5,414.5,197.1L414.5,197.1z"/>
	<path d="M406.3,194.9c0.6,0,1.1-0.1,1.5-0.7c0.2-0.4,0.4-0.8,0.4-1.2c0-1.1-0.7-1.8-1.8-1.8c-1.3-0.1-1.8,0.4-1.8,1.8
		c0,0.4,0,0.8,0.1,1.1C404.9,194.6,405.4,194.9,406.3,194.9L406.3,194.9z"/>
	<polygon class="st1" points="146,166.2 146,159.2 108.8,159.2 107.5,162.9 107.5,166.2 	"/>
	<polygon class="st1" points="152.3,188.2 152.3,182.5 107.7,182.5 106.4,185.6 106.4,188.2 	"/>
	<path class="st1" d="M19.4,163.5l0.7-1.3l-15.5-1c-0.7,0-1.5,0.1-2.1,0.1c-1.1,0.2-1.8,0.6-2.2,1.2v18c0.8,0.5,2.1,0.8,3.9,1
		l13.3,0.1C16.3,174,16.9,168,19.4,163.5L19.4,163.5z"/>
	<path class="st2" d="M245.6,62.1V4.3c-12,0.7-23.3,3.1-33.9,6.9C187,20,165.8,37,148.1,62.1H245.6z"/>
	<path d="M37.9,163.7c-0.7,0.7-1.5,1.4-2.1,2.2c-1.4,1.5-2.6,3.2-3.5,5c-0.4,0.7-0.8,1.5-1.2,2.4c-1.5,3.5-2.3,7.4-2.3,11.7
		c-0.1,7.4,2.2,13.9,6.9,19.7c0.5,0.7,1.3,1.5,2,2.2c3.4,3.5,7.4,6,11.6,7.5c3,1.1,6.3,1.7,9.9,1.8c3.9,0,7.5-0.5,11-1.8
		c3.9-1.3,7.5-3.6,10.7-6.7c6-5.9,9-13,9.1-21.4c0-1.7-0.1-3.3-0.3-5c-0.1-0.7-0.3-1.3-0.4-2.1c0-0.1,0-0.3-0.1-0.6v-0.1
		c-0.7-2.5-1.6-4.9-2.9-7.1c-0.4-0.8-0.9-1.6-1.3-2.4c-0.8-1.2-1.6-2.2-2.5-3.2c-0.4-0.4-0.9-1-1.4-1.4c-1.4-1.5-2.9-2.9-4.5-4
		c-4.9-3.5-10.7-5.4-17.1-5.5c-1.6-0.1-3.1,0.1-4.7,0.3c-4.9,0.5-9.5,2.4-13.5,5.3c-0.2,0.2-0.6,0.5-0.9,0.7l-2.1,2
		C38.1,163.5,37.9,163.5,37.9,163.7L37.9,163.7z M73.1,173.4L73.1,173.4L73.1,173.4c3.4,3.7,5,7.9,5,12.9c-0.1,3.5-0.9,6.6-2.5,9.3
		c-0.9,1.4-1.9,2.7-3.2,4.1c-3.7,3.5-8.1,5.2-13.3,5.2s-9.7-2-13.3-5.7c-1.1-1.3-2.1-2.4-2.8-3.5c-1.8-3-2.7-6.3-2.7-10
		c0-4.3,1.3-8,3.9-11.4c0.4-0.6,1-1.2,1.6-1.8c0.3-0.1,0.5-0.4,0.7-0.5c2.9-2.7,6.3-4.2,10.3-4.6c0.7-0.1,1.5-0.2,2.4-0.1
		c4.3,0.1,8,1.4,11.3,4c0.7,0.5,1.4,1.2,2,1.8C72.7,173.1,72.9,173.3,73.1,173.4L73.1,173.4z"/>
	<path class="st0" d="M73.2,173.5L73.2,173.5c-0.3-0.2-0.4-0.4-0.6-0.5c-0.6-0.7-1.3-1.3-2-1.8c-3.2-2.6-7-3.9-11.3-4
		c-0.9-0.1-1.7,0-2.4,0.1c-4,0.4-7.4,1.8-10.3,4.6c-0.1,0.1-0.4,0.4-0.7,0.5c-0.7,0.7-1.2,1.3-1.6,1.8c-2.7,3.3-3.9,7-3.9,11.4
		c-0.1,3.7,0.8,7,2.7,10c0.7,1.1,1.7,2.3,2.8,3.5c3.6,3.7,8,5.6,13.3,5.7c5.2,0.1,9.7-1.6,13.3-5.2c1.3-1.3,2.3-2.7,3.2-4.1
		c1.6-2.7,2.4-5.8,2.5-9.3C78.1,181.3,76.5,177.1,73.2,173.5L73.2,173.5z M53.4,177.8L53.4,177.8c1.2,0.1,1.8,0.7,1.8,1.8
		c0,0.4-0.1,0.8-0.5,1.2c-0.4,0.5-0.8,0.7-1.5,0.7c-0.4,0-0.7,0-1-0.1c-0.1-0.1-0.3-0.2-0.6-0.4c-0.1-0.2-0.1-0.7-0.1-1.5
		C51.6,178.3,52.2,177.7,53.4,177.8z M50.2,184L50.2,184c1.2,0.1,1.8,0.7,1.8,1.8c0,0.5-0.1,1-0.4,1.3c-0.4,0.4-0.9,0.7-1.4,0.7
		c-0.8,0-1.3-0.3-1.5-1c-0.2-0.7-0.3-1-0.3-1C48.3,184.5,49,183.9,50.2,184z M66.2,179.2L66.2,179.2c0,0.4-0.1,0.8-0.4,1.2
		c-0.4,0.4-0.9,0.7-1.4,0.7c-0.5,0-0.8-0.1-1-0.2c-0.4-0.1-0.6-0.3-0.6-0.4c-0.1-0.2-0.1-0.7-0.1-1.5c0-1.3,0.6-1.9,1.8-1.8
		C65.6,177.5,66.2,178.1,66.2,179.2z M57.2,178.7L57.2,178.7c-0.1-0.1-0.2-0.7-0.2-1.5c0-1.3,0.6-1.8,1.8-1.8
		c1.3,0.1,1.8,0.7,1.8,1.8c0,0.5-0.1,1-0.4,1.4c-0.3,0.4-0.7,0.6-1.4,0.6c-0.4,0-0.7,0-0.9-0.1C57.7,178.9,57.5,178.7,57.2,178.7
		L57.2,178.7z M69.3,185.8L69.3,185.8c0,0.4-0.1,0.9-0.5,1.3c-0.3,0.4-0.7,0.7-1.3,0.7c-0.7,0-1.3-0.3-1.5-1c-0.1-0.7-0.2-1-0.2-1
		c0-1,0.5-1.5,1.8-1.6C68.7,184,69.3,184.6,69.3,185.8L69.3,185.8z M65.8,195.2L65.8,195.2c-0.8,0-1.4-0.3-1.6-0.8
		c-0.2-0.4-0.2-0.7-0.2-1.1c0-1.3,0.6-1.8,1.8-1.8c1.2,0.1,1.8,0.7,1.8,1.8c0,0.4-0.2,0.7-0.5,1.2C66.8,195.1,66.3,195.2,65.8,195.2
		z M57.9,196.1L57.9,196.1c0-1.3,0.7-1.8,1.8-1.7c1.3,0.1,1.8,0.7,1.8,1.8c0,0.5-0.1,0.9-0.4,1.3c-0.4,0.4-0.9,0.7-1.4,0.7
		c-0.4,0-0.7-0.1-1-0.1c-0.1-0.2-0.4-0.3-0.6-0.5C58,197.4,57.9,196.9,57.9,196.1L57.9,196.1z M54.7,193.4L54.7,193.4
		c0,0.4-0.1,0.7-0.4,1.2c-0.3,0.5-0.8,0.7-1.4,0.7c-0.8,0-1.4-0.3-1.6-0.8c-0.1-0.3-0.2-0.7-0.2-1.1c0-1.3,0.7-1.8,1.8-1.8
		C54.2,191.6,54.7,192.3,54.7,193.4z"/>
	<path d="M55.3,179.7c0-1.1-0.7-1.8-1.8-1.8c-1.3-0.1-1.8,0.4-1.8,1.8c0,0.8,0.1,1.3,0.1,1.5c0.3,0.1,0.4,0.2,0.6,0.4
		c0.3,0.1,0.6,0.1,1,0.1c0.7,0,1.1-0.2,1.5-0.7C55.1,180.5,55.3,180.1,55.3,179.7z"/>
	<path d="M51.9,185.8c0-1.2-0.6-1.7-1.8-1.8c-1.2-0.1-1.8,0.5-1.8,1.8c0,0,0.1,0.4,0.3,1c0.2,0.7,0.7,1,1.5,1c0.5,0,1-0.3,1.4-0.7
		C51.8,186.8,51.9,186.3,51.9,185.8z"/>
	<path d="M65.8,180.4c0.3-0.4,0.4-0.8,0.4-1.2c0-1.1-0.7-1.8-1.8-1.9c-1.2-0.1-1.8,0.5-1.8,1.8c0,0.7,0,1.3,0.1,1.5
		c0,0.1,0.2,0.2,0.6,0.4c0.2,0.1,0.5,0.2,1,0.2C64.9,181.2,65.4,180.9,65.8,180.4z"/>
	<path d="M57,177.2c0,0.7,0.1,1.3,0.2,1.5c0.2,0.1,0.4,0.3,0.7,0.4c0.1,0.1,0.5,0.1,0.9,0.1c0.7,0,1.1-0.2,1.4-0.6
		c0.4-0.4,0.4-0.9,0.4-1.4c0-1.1-0.6-1.7-1.8-1.8C57.6,175.3,57,175.9,57,177.2L57,177.2z"/>
	<path d="M68.8,187.1c0.4-0.4,0.5-0.8,0.5-1.3c0-1.3-0.6-1.8-1.8-1.7c-1.3,0.1-1.8,0.7-1.8,1.6c0,0,0.1,0.4,0.2,1
		c0.2,0.7,0.8,1,1.5,1C68.1,187.8,68.5,187.5,68.8,187.1L68.8,187.1z"/>
	<path d="M64.2,194.4c0.2,0.5,0.8,0.8,1.6,0.8c0.5,0,1-0.1,1.3-0.7c0.3-0.4,0.5-0.8,0.5-1.2c0-1.1-0.6-1.8-1.8-1.8
		c-1.3-0.1-1.8,0.4-1.8,1.8C64,193.7,64,194.1,64.2,194.4z"/>
	<path d="M59.8,194.4c-1.2-0.1-1.8,0.4-1.8,1.7c0,0.8,0.1,1.3,0.3,1.4c0.2,0.2,0.4,0.3,0.6,0.5c0.2,0.1,0.5,0.1,1,0.1
		c0.5,0,1-0.3,1.4-0.7c0.3-0.4,0.4-0.7,0.4-1.3C61.6,195.1,61,194.5,59.8,194.4L59.8,194.4z"/>
	<path d="M54.3,194.6c0.3-0.4,0.4-0.8,0.4-1.2c0-1.1-0.6-1.8-1.8-1.8c-1.2-0.1-1.8,0.4-1.8,1.8c0,0.4,0.1,0.8,0.2,1.1
		c0.2,0.5,0.8,0.8,1.6,0.8C53.5,195.2,54,195.1,54.3,194.6z"/>
	<path d="M340.9,154.6c-0.1,0-0.1,0-0.3,0c-3,0.1-5.8,0.6-8.6,1.5c-2.7,0.8-5.2,2.1-7.5,3.7c-1.3,1-2.7,2-3.9,3.2
		c-0.4,0.3-0.7,0.7-1.1,1c-5.5,5.6-8.3,12.4-8.5,20.3c-0.1,0.8-0.1,1.5,0,2.3c0.1,3.6,0.8,6.9,2.1,10l2.2,4.4
		c0.7,1.3,1.6,2.6,2.7,3.8c0.6,0.7,1.3,1.5,2.1,2.3c1.4,1.5,2.9,2.8,4.5,3.9c4.9,3.5,10.6,5.2,17,5.4c8.5,0.1,15.7-2.7,21.7-8.4
		c5.3-5.3,8.3-11.6,9-18.8c0.1-0.9,0.1-1.8,0.2-2.6c0-0.1,0-0.3,0-0.4c0.2-8-2.3-15.1-7.6-21.1v-0.1c-0.3-0.3-0.5-0.6-0.8-0.8
		c-0.1-0.1-0.3-0.3-0.4-0.4c-2.2-2.4-4.6-4.2-7.1-5.6c-0.6-0.3-1.1-0.6-1.6-0.8c-1.3-0.6-2.4-1.1-3.7-1.5c-0.1,0-0.1,0-0.2-0.1
		c-2.7-0.8-5.5-1.3-8.4-1.4C342,154.6,341.5,154.6,340.9,154.6L340.9,154.6z M328.2,172.7L328.2,172.7c0.3-0.2,0.5-0.4,0.7-0.6
		c2.9-2.7,6.3-4.2,10.2-4.6c0.8-0.2,1.5-0.2,2.4-0.1c4.3,0.1,8.1,1.4,11.3,4c0.7,0.5,1.4,1.1,2,1.8c0.2,0.1,0.4,0.3,0.6,0.4v0.1
		c3.3,3.5,5,7.9,4.9,12.8c0,3.5-0.9,6.6-2.4,9.3c-0.9,1.3-2,2.7-3.2,4.1c-3.7,3.5-8.1,5.2-13.3,5.2c-5.2-0.1-9.7-2.1-13.3-5.8
		c-1-1.1-2-2.3-2.8-3.5c-0.3-0.5-0.5-1-0.8-1.5c-1.3-2.6-1.8-5.5-1.8-8.5c0-2.9,0.7-5.7,1.8-8.1c0.5-1.2,1.3-2.2,2.1-3.2
		C327.1,173.9,327.6,173.3,328.2,172.7L328.2,172.7z"/>
	<path class="st0" d="M328.9,172.1c-0.2,0.2-0.4,0.4-0.7,0.6c-0.6,0.6-1.1,1.2-1.6,1.8c-0.8,1-1.5,2-2.1,3.2
		c-1.2,2.4-1.8,5.2-1.8,8.1c0,3.1,0.5,6,1.8,8.5c0.3,0.4,0.5,1,0.8,1.5c0.8,1.2,1.8,2.4,2.8,3.5c3.7,3.8,8.1,5.7,13.3,5.8
		c5.2,0,9.6-1.8,13.3-5.2c1.3-1.3,2.4-2.7,3.2-4.1c1.5-2.7,2.4-5.8,2.4-9.3c0.1-4.9-1.6-9.3-4.9-12.8v-0.1c-0.2-0.1-0.4-0.3-0.6-0.4
		c-0.6-0.7-1.3-1.3-2-1.8c-3.2-2.6-7-3.9-11.3-4c-0.9-0.1-1.6-0.1-2.4,0.1C335.3,167.9,331.9,169.4,328.9,172.1L328.9,172.1z
		 M337.6,179.9L337.6,179.9c0,0.4-0.1,0.8-0.5,1.2c-0.3,0.5-0.7,0.8-1.4,0.8c-0.4,0-0.7-0.1-1-0.3c-0.2-0.1-0.4-0.1-0.6-0.3
		c-0.1-0.1-0.2-0.7-0.2-1.5c0-1.3,0.6-1.8,1.8-1.8C337,178.2,337.6,178.8,337.6,179.9L337.6,179.9z M330.9,187.1L330.9,187.1
		c-0.1-0.7-0.2-1-0.2-1.1c0-1.3,0.6-1.8,1.8-1.8c1.2,0.1,1.7,0.7,1.7,1.8c0,0.4-0.1,1-0.4,1.3c-0.4,0.5-0.8,0.7-1.4,0.7
		C331.7,188,331.1,187.7,330.9,187.1L330.9,187.1z M333.6,194.6L333.6,194.6c-0.1-0.2-0.1-0.6-0.1-1.1c0-1.2,0.6-1.8,1.8-1.7
		c1.3,0.1,1.8,0.7,1.8,1.8c0,0.4-0.1,0.8-0.4,1.2c-0.4,0.4-0.8,0.7-1.5,0.7C334.4,195.5,333.9,195.2,333.6,194.6L333.6,194.6z
		 M348.1,180.6L348.1,180.6c-0.4,0.5-0.8,0.7-1.4,0.7c-0.4,0-0.8-0.1-1-0.2c-0.4-0.2-0.6-0.3-0.7-0.3c-0.1-0.3-0.1-0.7-0.1-1.5
		c0-1.3,0.6-1.8,1.8-1.8c1.2,0.1,1.8,0.7,1.8,1.8C348.5,179.8,348.4,180.2,348.1,180.6L348.1,180.6z M339.4,177.4L339.4,177.4
		c0-1.3,0.6-1.8,1.8-1.7c1.2,0.1,1.8,0.7,1.8,1.8c0,0.4-0.1,1-0.4,1.4c-0.4,0.4-0.8,0.6-1.4,0.6c-0.4,0-0.7-0.1-0.9-0.1
		c-0.2-0.2-0.4-0.4-0.7-0.5C339.4,178.7,339.4,178.2,339.4,177.4L339.4,177.4z M349.9,184.3L349.9,184.3c1.2-0.1,1.8,0.5,1.8,1.7
		c0,0.4-0.1,0.8-0.5,1.3c-0.4,0.5-0.7,0.7-1.3,0.7c-0.7,0-1.3-0.3-1.5-1c-0.2-0.7-0.3-1-0.3-1.1
		C348.1,184.9,348.7,184.4,349.9,184.3L349.9,184.3z M348.1,195.5L348.1,195.5c-0.7,0-1.3-0.3-1.5-1c-0.2-0.3-0.3-0.7-0.3-1.1
		c0-1.2,0.7-1.8,1.8-1.7c1.2,0.1,1.8,0.7,1.8,1.8c0,0.4-0.1,0.8-0.4,1.2C349.1,195.2,348.6,195.5,348.1,195.5L348.1,195.5z
		 M344,196.4L344,196.4c0,0.5-0.1,0.9-0.5,1.3c-0.4,0.4-0.8,0.7-1.3,0.7c-0.5,0-0.7-0.1-1-0.2c-0.1-0.1-0.4-0.3-0.7-0.4
		c-0.1-0.2-0.2-0.7-0.2-1.5c0-1.2,0.6-1.8,1.8-1.7C343.3,194.7,344,195.2,344,196.4z"/>
	<path d="M337,181.1c0.4-0.4,0.5-0.7,0.5-1.2c0-1.1-0.6-1.7-1.8-1.9c-1.3-0.1-1.8,0.5-1.8,1.8c0,0.8,0.1,1.4,0.2,1.5
		c0.2,0.1,0.4,0.2,0.6,0.3c0.3,0.2,0.5,0.3,1,0.3C336.3,181.9,336.7,181.6,337,181.1L337,181.1z"/>
	<path d="M330.7,186c0,0.1,0.1,0.4,0.2,1.1c0.2,0.7,0.7,1,1.5,1c0.6,0,1-0.2,1.4-0.7c0.2-0.3,0.4-0.8,0.4-1.3c0-1.1-0.5-1.8-1.7-1.8
		C331.3,184.1,330.7,184.7,330.7,186L330.7,186z"/>
	<path d="M333.4,193.5c0,0.5,0.1,0.9,0.1,1.1c0.3,0.7,0.8,1,1.6,1c0.7,0,1.1-0.3,1.5-0.7c0.3-0.4,0.4-0.7,0.4-1.2
		c0-1.1-0.6-1.8-1.8-1.8C334,191.6,333.4,192.3,333.4,193.5L333.4,193.5z"/>
	<path d="M346.7,181.4c0.6,0,1-0.2,1.4-0.7c0.3-0.4,0.4-0.8,0.4-1.3c0-1.1-0.7-1.7-1.8-1.8c-1.2-0.1-1.8,0.4-1.8,1.8
		c0,0.8,0,1.3,0.1,1.5c0.1,0,0.2,0.1,0.7,0.3C345.9,181.3,346.3,181.4,346.7,181.4L346.7,181.4z"/>
	<path d="M341.2,175.7c-1.2-0.1-1.8,0.4-1.8,1.7c0,0.8,0,1.3,0.2,1.5c0.2,0.1,0.4,0.3,0.7,0.5c0.1,0,0.4,0.1,0.9,0.1
		c0.6,0,1-0.2,1.4-0.6c0.3-0.4,0.4-1,0.4-1.4C343,176.4,342.3,175.8,341.2,175.7L341.2,175.7z"/>
	<path d="M351.7,186c0-1.2-0.7-1.8-1.8-1.7c-1.2,0.1-1.8,0.6-1.8,1.6c0,0.1,0.1,0.4,0.3,1.1c0.2,0.7,0.7,1,1.5,1
		c0.6,0,1-0.2,1.3-0.7C351.6,186.8,351.7,186.5,351.7,186L351.7,186z"/>
	<path d="M346.6,194.6c0.2,0.7,0.8,1,1.5,1c0.5,0,1-0.3,1.3-0.7c0.3-0.4,0.4-0.7,0.4-1.2c0-1.1-0.6-1.8-1.8-1.8
		c-1.2-0.1-1.8,0.5-1.8,1.7C346.3,193.9,346.3,194.3,346.6,194.6L346.6,194.6z"/>
	<path d="M343.5,197.7c0.4-0.4,0.5-0.8,0.5-1.3c0-1.2-0.7-1.7-1.8-1.8c-1.3-0.1-1.8,0.5-1.8,1.7c0,0.7,0.1,1.3,0.2,1.5
		c0.2,0.1,0.5,0.3,0.7,0.4c0.2,0.1,0.4,0.2,1,0.2C342.6,198.4,343.1,198.2,343.5,197.7z"/>
	<path d="M447.3,124c-0.9,0-1.6,0.2-2.3,0.9c-0.7,0.7-1,1.4-1,2.3c0,0.3,0.1,0.6,0.1,0.9c0.1,0.4,0.4,1,0.8,1.3c0.7,0.6,1.4,1,2.3,1
		c0.1,0,0.1,0,0.3,0c0.7-0.1,1.4-0.4,1.9-1c0.7-0.6,1-1.3,1-2.2c0-0.9-0.3-1.6-1-2.3S448.1,124,447.3,124L447.3,124z"/>
	<path class="st3" d="M447.5,130.4l-0.1-0.1c-0.9,0-1.6-0.4-2.3-1c-0.4-0.4-0.7-0.9-0.8-1.3l-4.9,5.6l-0.8,0.9l3.2,2.7l1.1-1.3
		L447.5,130.4L447.5,130.4z"/>
	<path d="M408.1,80.9c-0.8-0.7-1.8-1.1-2.9-1.1c-1.2,0-2.1,0.4-2.9,1.1c-0.7,0.9-1.2,1.8-1.2,2.9c0,0.9,0.2,1.6,0.7,2.4
		c0.1,0.2,0.2,0.4,0.4,0.5c0.8,0.8,1.8,1.2,2.9,1.2c0.5,0,1-0.1,1.5-0.2c0.5-0.2,1-0.5,1.4-1c0.8-0.7,1.2-1.8,1.2-2.9
		C409.3,82.8,408.9,81.8,408.1,80.9z"/>
	<path class="st3" d="M402.3,86.7c-0.2-0.1-0.4-0.3-0.4-0.5L397,99l-1.3,3.7l5.1,1.8l3.1-8.5l2.9-8.3c-0.4,0.1-1,0.2-1.5,0.2
		C404,87.9,403.1,87.6,402.3,86.7z"/>
	<polygon class="st2" points="402.1,105 400.7,104.5 395.6,102.7 394.5,102.3 385.1,126.8 393.7,126.8 	"/>
	<polygon class="st2" points="438.1,142.8 442.5,138.1 437.1,133.8 428.2,142.8 	"/>
	<polygon class="st4" points="500,78.3 493.2,76.6 488.2,103 495.4,104.3 	"/>
	<path class="st5" d="M2,145.7v0.2c0.1,0,0.1,0,0.1-0.1c0.2-0.1,0.4-0.3,0.6-0.5c1.5-1.3,2.9-2.4,4.4-3.3c6.8-4.7,14.6-7.9,23.2-9.5
		c6.9-1.2,13.6-1.9,20.1-2.2c10-0.6,19.2,1,27.8,4.6c17.2,8.7,25.7,26.2,25.2,52.3l1-1.4c0.6-25.6-8-43.1-25.8-52.3
		c-8-3.9-17.5-5.4-28.2-4.6c-2.9,0.1-5.9,0.3-8.9,0.7C23.9,131,11,136.1,2.8,144.8C2.5,145.1,2.3,145.4,2,145.7L2,145.7z"/>
	<path class="st2" d="M2.2,145.9c-0.1,0.1-0.1,0.1-0.1,0.1v0.1h11.2c1.6,0.4,2.1,1.7,1.6,3.8c-1,2.3-2.4,4.5-4.2,6.7H2v1.3
		c0.1,0.1,0.4,0.3,0.6,0.4c0.2,0,0.3,0,0.5,0.1l18.9,1.2c7.4-9.4,16.5-15.4,27.1-17.9c0.4-0.1,0.9-0.1,1.3-0.1
		c8.7-1.8,16.4-1.6,23.3,0.7c3.9,1.3,7.5,3.3,10.8,6.1c6.6,5.5,11.1,14.3,13.6,26.2c1,4.6,1.5,9.6,1.8,15l3.4-2.5
		c0.5-26.1-8-43.6-25.2-52.3c-8.6-3.6-17.8-5.2-27.8-4.6c-6.5,0.3-13.2,1-20.1,2.2c-8.6,1.6-16.4,4.8-23.2,9.5
		c-1.5,1-2.9,2.1-4.4,3.3C2.6,145.6,2.4,145.7,2.2,145.9L2.2,145.9z M77.7,136.6L77.7,136.6l0.3,0.1c2.7,1.3,4.9,2.9,6.7,4.8
		l-1.2,1.3c-1.5,0-3.3-0.9-5.5-2.6v-1l-1.7-0.6c-1.8-1.3-3.6-2.1-5.2-2.6l0.9-2.1C74.4,134.9,76.4,135.8,77.7,136.6L77.7,136.6z"/>
	<path d="M78,136.7l-0.3-0.1c-1.3-0.8-3.3-1.7-5.7-2.5l-0.9,2.1c1.6,0.4,3.4,1.3,5.2,2.6l1.7,0.6v1c2.1,1.7,4,2.6,5.5,2.6l1.2-1.3
		C83,139.7,80.7,138,78,136.7L78,136.7z"/>
	<path class="st3" d="M14.9,149.9c0.5-2.1,0-3.4-1.6-3.8H2v10.5h8.6C12.5,154.4,13.9,152.2,14.9,149.9z"/>
	<polygon points="165.9,150.5 165.9,150.6 165.9,161.6 198.2,161.6 198.2,178.9 204.7,178.7 216.2,166.9 251.9,166.9 251.9,150.5 
		209.5,150.5 	"/>
	<polygon class="st3" points="198.2,178.9 198.2,161.6 165.9,161.6 147.5,161.6 147.5,167.5 108.2,167.5 108.1,181.2 153.7,181.1 
		153.6,189.5 108.8,189.5 108.8,191.7 198.2,191.7 	"/>
	<path class="st2" d="M417.5,70.5l-0.8-2.1L326,106.5l-11.8,5l4.9,9h28.2L397,99l4.9-12.8c-0.5-0.7-0.7-1.5-0.7-2.4
		c0-1.1,0.4-2.1,1.2-2.9c0.8-0.7,1.8-1.1,2.9-1.1c1.1,0,2.1,0.4,2.9,1.1c0.8,0.9,1.2,1.8,1.2,2.9c0,1.1-0.4,2.1-1.2,2.9
		c-0.4,0.4-0.9,0.7-1.4,1l-2.9,8.3l20.5-8.9l-0.9-2l41.6-17.9c5.5-2.9,8.6-8.7,9.2-17.1c0.1-1.4,0.2-2.8,0.1-4.3l-4.4-4.9l-10.5,4.6
		l0.4,1.2l0.7,1.8l1,2.9l-11.9,5.3l-0.3-0.7L417.5,70.5L417.5,70.5z"/>
	<path class="st4" d="M460.7,48.6l-0.7-1.8L325.4,103c-0.2-0.9-0.5-1.7-0.9-2.5c-0.7-1.8-1.8-3.2-3.2-4.7c-3.2-3.3-7-5-11.4-5
		c-2.3,0-4.4,0.4-6.4,1.3l10.7,19.4l11.8-5c0-0.4-0.1-0.9-0.1-1.3C325.9,105.2,460.7,48.6,460.7,48.6z"/>
	<path class="st2" d="M152.3,64.3c-13.6-0.6-28.5,0-44.8,1.8c-5.6,1.4-10,4.7-13.1,10c-6.6,12.1-12.1,23.3-16.5,33.7
		C48.5,113.3,26,117,10.3,121c-0.1,0-0.1,0-0.2,0l-0.8,0.2c-0.3,0-0.6,0.1-0.8,0.2c-4,1-6,2.5-6.3,4.5v19.8c0.2-0.3,0.4-0.6,0.7-0.9
		c8.3-8.7,21.2-13.9,38.8-15.3c3-0.4,6-0.6,8.9-0.7c10.8-0.8,20.2,0.7,28.2,4.6c17.8,9.2,26.4,26.8,25.8,52.3h0.9l0.2-29.9l48.6-1.3
		c0.3-1.9,1.4-3.2,3.5-3.8c2.1-0.1,3.2-0.8,3.3-2.2c0.1,1,0.7,1.7,1.8,2h2.9v-0.1h43.6c1-0.3,1.8-0.9,2.4-1.7h34.2v-33.2l-13.6,4.6
		l0,0l-13,3.9l0.3-1.3l-13.1,5l0.3-1l-8.6,3.5l11.9-6l-11.9,6l0,0l8-2.5l13.1-3.7l13-3.9l13.6-4.6V89c-0.1,1.3-0.1,2.5-0.1,3.7
		l-19.2,6.6l18.7-27.3l-34.9,13.3l-1.8,17.7l-18.4,7l0.3-1.4l-12.2,4.9l0,0l11.3-3.1l0,0l-1.5,8.4l20.3-14.7l18.1-4.8l19.3-5.9
		l0.3-28.6c-6-0.2-13.3-0.5-22.2-0.3h-59c-2.7,0.4-4.3,2.3-4.8,5.9C160.1,66.7,157.3,64.7,152.3,64.3L152.3,64.3z M103.7,82.7
		L103.7,82.7l0.1-7.3l-1.8-0.1l3-3.8l3.4,1.2l-2.9,2.9v3.2c1.9-4,5.2-6.2,9.6-6.5h23.7c4.5,0.4,6.6,2.9,6,7.5l-0.8,13.6
		c-0.3,7.7-3.2,11.9-8.5,12.5L111,110v1.4c-2.9,0.1-4.9-0.4-5.7-1.4v4.1h4.4l0.1,1.5l-4,4.4h-1.3l-3.6-4.6V114h2.8v-2.8h-0.3
		c-4.3,0.2-6.5-1.9-6.6-6.3c0.2-4.1,1.5-9.2,3.9-15.2L103.7,82.7L103.7,82.7z M148.5,122L148.5,122c1.3,0,1.8,0.7,1.6,2.4
		c-0.5,7.7-2.2,11.9-5.2,12.4c-2.7,0.6-4.1,0.2-4.3-1.3l0.1-8.6c0-2.7,1.1-4.1,3.2-4.4L148.5,122L148.5,122z M108.5,127.9
		L108.5,127.9L108.5,127.9l0.1-0.1v0.1H108.5z M170.5,75.8L170.5,75.8c0-2.4,1.2-3.7,3.7-3.7H201c1,0,1.9,0.3,2.5,0.7
		c0.7,1,1,2,1,3.1v19.9c0.1,1.3-0.3,2.2-1,3.1c-0.6,0.4-1.5,0.7-2.5,0.7h-26.8c-2.5,0-3.7-1.2-3.7-3.7V75.8z M173.9,117.4
		L173.9,117.4h9.3c2.5,0,3.7,1.3,3.7,3.7v18.2c0,2.4-1.2,3.7-3.7,3.7h-9.3c-2.5,0-3.7-1.3-3.7-3.7v-4.2l-14.4,4.9l0.1-1.1l-14,5.2
		l0.3-1.3l-13.9,5.3l0.2-1l-9.1,3.7l0,0l8.9-2.7l0,0l0,0l13.6-4l13.9-4.1l14.4-4.9v-14C170.2,118.7,171.3,117.4,173.9,117.4z"/>
	<path d="M103.6,75.4l-0.1,7.3l-0.1,28.5v0.1v2.8h-2.8v1.3l3.6,4.6h1.3l4-4.4l-0.1-1.5h-4.4V110c0.8,1,2.8,1.5,5.7,1.4V110v-9.4
		c-2.6-0.2-4.6,0.2-5.7,1.5v-6.3c1.5,1.8,3.5,2.7,6,2.5l0.1-22.1c-2.1-0.4-4.1,0.6-6,2.9l-0.1,0.1c0-0.1,0.1-0.2,0.1-0.3v-3.2
		l2.9-2.9l-3.4-1.2l-3,3.8L103.6,75.4L103.6,75.4z"/>
	<path d="M150,124.3c0.1-1.6-0.4-2.4-1.6-2.4l-4.6,0.4c-2.1,0.3-3.2,1.8-3.2,4.4l-0.1,8.6c0.2,1.5,1.6,1.9,4.3,1.3
		C147.8,136.2,149.5,132.1,150,124.3L150,124.3z M146.2,124.6L146.2,124.6l-0.1,8.6c-0.8,0.6-1.5,0.6-2.1,0l0.1-8.6
		C144.9,124.2,145.5,124.2,146.2,124.6z"/>
	<polygon points="108.3,127.9 108.3,127.9 108.5,127.9 108.5,127.9 	"/>
	<path class="st2" d="M175.2,73.6c-2.2,0-3.4,1.1-3.4,3.2v18.1c0,2.2,1.2,3.3,3.4,3.3h24.4c2.3,0,3.4-1.1,3.4-3.3V76.9
		c0-2.1-1.1-3.2-3.4-3.2H175.2z"/>
	<path class="st2" d="M182.3,118.7h-7.9c-2.1,0-3.2,1.1-3.2,3.3v16.4c0,2.2,1,3.3,3.2,3.3h7.9c2.1,0,3.2-1.1,3.2-3.3V122
		C185.5,119.8,184.4,118.7,182.3,118.7z"/>
	<path class="st6" d="M284.3,57.3h-20.6l17.8,56.2h-29.7v37.1v16.4v19.8h56.6c-0.1-8.8,2-15.3,6.2-19.8c3-3.8,6.3-6.8,9.8-9
		c2-1.3,4.1-2.2,6.3-3c3.5-1,7-1.5,10.6-1.4c0.1,0,0.2,0,0.4,0c0.5,0,1,0,1.5,0c2.9,0.1,5.8,0.6,8.5,1.3c0,0.1,0.1,0.1,0.1,0.1
		l3.7,1.4c0.6,0.3,1.1,0.5,1.7,0.9c2.6,1.4,4.9,3.2,7.1,5.5c0.1,0.1,0.2,0.3,0.4,0.4c0.2,0.3,0.5,0.5,0.7,0.9h0.1
		c5.5,5.2,8.4,12.8,8.6,22.7h5.7c0-0.4,0-0.8,0-1.2c0-9.1,3.2-16.8,9.6-23.1c6.4-6.4,14.2-9.6,23.1-9.6c9.1,0,16.8,3.2,23.1,9.6
		c6.3,6.3,9.6,14.1,9.6,23.1c0,0.4,0,0.8,0,1.2h20v-1.2l-10.1-42.7h-2.9h-14.3h-9.9h-7.1v-9.2v-6.9h-24.8h-2.7h-8.6h-4.6l-4.8-6.3
		h-28.3h-28.2l-4.9-9l-10.7-19.4L284.3,57.3L284.3,57.3z M339.5,126L339.5,126h8.7v2.8h-8.7V126z M276,70.2L276,70.2v-2.7h8.7v2.7
		H276z M283.2,79.1L283.2,79.1h8.7v2.7h-8.7V79.1z M289.4,90.9L289.4,90.9h8.7v2.7h-8.7V90.9z M283.2,117.7L283.2,117.7v2.8h-8.7
		v-2.8H283.2z M281.8,163.5L281.8,163.5v2.8h-8.7v-2.8H281.8z M406.2,130.7L406.2,130.7v2.8h-8.7v-2.8H406.2z M451.3,182.5
		L451.3,182.5v-2.7h8.7v2.7H451.3z"/>
	<polygon points="348.2,126 339.5,126 339.5,128.8 348.2,128.8 	"/>
	<polygon class="st5" points="276,67.5 276,70.2 284.7,70.2 284.7,67.5 	"/>
	<polygon class="st5" points="291.9,79.1 283.2,79.1 283.2,81.8 291.9,81.8 	"/>
	<polygon class="st5" points="298.1,90.9 289.4,90.9 289.4,93.6 298.1,93.6 	"/>
	<polygon points="283.2,120.5 283.2,117.7 274.5,117.7 274.5,120.5 	"/>
	<polygon points="281.8,166.3 281.8,163.5 273.1,163.5 273.1,166.3 	"/>
	<polygon points="406.2,133.5 406.2,130.7 397.5,130.7 397.5,133.5 	"/>
	<polygon points="451.3,179.8 451.3,182.5 460,182.5 460,179.8 	"/>
	<path class="st2" d="M502.1,105.5l-6.8-1.2l-7.1-1.3l-5.5-1l-1.4,7.6l5.4,1.1l-1-0.2l-2.4,14.2l-1.6-0.3l-1.2,6.6l-1.2-0.2
		l-6.3,32.8l-11.7-52.1h-8.3l-49.3,8.3l-7.4,6.9h24.8v6.9l13.9-2.8l4.2,2.8l4.9-5.6c-0.1-0.3-0.1-0.6-0.1-0.9c0-0.9,0.3-1.6,1-2.3
		c0.7-0.7,1.4-0.9,2.3-0.9c0.8,0,1.5,0.2,2.2,0.9c0.7,0.7,1,1.4,1,2.3c0,0.9-0.3,1.6-1,2.2c-0.5,0.6-1.2,0.9-1.9,1l-0.1,0.1
		l-4.6,5.5l9.3,6.1l0.3,0.8h2.9l10.1,42.7v1.2l9.9,0.4l9,1l11.4-54.9L494,133l1.2-6.6l-1.5-0.2l2.5-13.6l4.3,0.7L502.1,105.5
		L502.1,105.5z"/>
	<path class="st0" d="M120.3,127.4L120.3,127.4C120.3,127.3,120.3,127.4,120.3,127.4c0.1,0.1,0.1,0.1,0.1,0.1c0,0.1,0,0.1-0.1,0.2
		c-0.1,0.1-0.1,0.1-0.3,0c-0.1-0.1-0.1-0.1-0.1-0.1c0,0,0,0,0-0.1h0.1h0.1C120.2,127.4,120.3,127.4,120.3,127.4L120.3,127.4z"/>
	<path class="st2" d="M121.7,129.7c0.1,0,0.1,0,0.1,0.1c0,0.1,0,0.1,0.1,0.1v-0.1c0-0.1,0-0.1,0.1-0.2c0-0.1,0.1-0.2,0.1-0.2
		c-0.1,0-0.1,0-0.2,0.1C121.8,129.6,121.7,129.6,121.7,129.7L121.7,129.7L121.7,129.7z"/>
	<path class="st2" d="M127.6,119.4c-0.1-0.1-0.3-0.3-0.5-0.3h-0.5l0.4,1h0.6c0.3,0,0.4-0.1,0.2-0.4L127.6,119.4L127.6,119.4z"/>
	<path class="st2" d="M124.5,138L124.5,138c-0.1-0.1-0.1-0.1-0.1-0.1c-0.1,0-0.1,0-0.3,0c-0.1,0-0.1,0-0.2,0c0,0.1-0.1,0.1-0.1,0.1
		c-0.1,0.1-0.1,0.2-0.1,0.4c0,0.1,0,0.2,0.1,0.3c0,0.1,0.1,0.1,0.1,0.1c0.1,0.1,0.1,0.1,0.2,0.1c0.1,0,0.1,0,0.3-0.1c0,0,0,0,0.1,0
		v-0.1c0.1-0.1,0.1-0.2,0.1-0.3C124.7,138.2,124.6,138,124.5,138z"/>
</g>
<polyline class="st7" points="124.8,130.8 119.6,130.8 119.6,128.1 124.8,128.1 "/>
<g id="surface1">
	<path class="st8" d="M139.4,139H96.6v-8c0,0,1.7-0.9,2.1-1.4c0,0,2.3-2.9,3-2.9c0,0-0.1-0.8,0.4-1.2c0,0,0.9-0.9,1.4-1.6
		c0,0,0.3-0.6,1-0.6c0,0,1.1-0.1,1.6-0.8c0,0,0.8-0.9,1.6-0.8c0,0,0.3,0.1,0.8-0.4c0,0,2.2-1.8,3-1c0,0,1.3,1.5,2.1,1.6
		c0,0,0.6,0.2,0.9,0.9c0,0,0.8,1.4,2.6,0.5c0,0,2.6-2.1,3.9-3.9c0,0,0.5-0.9,0.6,0c0,0-0.1,1.9,0.5,2.4c0,0,0.6,1,1.2,0.3
		c0,0,0.3,0,0.2-0.5c0,0-0.1-0.3,0.2-0.7c0,0,0.1-0.6,0.3-0.9c0,0,0.6-0.5,0.7,0c0,0,0.1,0.6,0.5,0.9c0,0,0.4,0.2,0.3,0.6
		c0,0,0.9,1.4,1.7,0.9c0,0,0.9-1.5,1.3-0.9c0,0,1.1,0.9,1.5,0.9c0,0,0.5-0.3,0.7,0.1c0,0,0.3,0.4,0.6,0.5c0,0,0.9,0.4,0.9,0.7
		c0,0,0,0.2,0.3,0c0,0,0.5-0.1,1.5,0.6c0,0,0.4,0.4,0.8,0.8c0,0,1.1,1.3,1.6,1.3c0,0,0.3-0.4,0.7,0.1c0,0,1.8,1.2,2.2,1.7l0.3,0.3
		L139.4,139"/>
</g>
<rect x="97" y="125.4" class="st7" width="42.5" height="18.3"/>
<text transform="matrix(1 0 0 1 112.2848 127.4875)"><tspan x="0" y="0" class="st9 st10 st11">MR Grúas </tspan><tspan x="-15" y="10.8" class="st9 st10 st11">Servicio de Grúas y Asistencia Vial</tspan></text>
</svg>
