<?xml version="1.0" encoding="UTF-8"?>
<!DOCTYPE svg PUBLIC "-//W3C//DTD SVG 1.1//EN" "http://www.w3.org/Graphics/SVG/1.1/DTD/svg11.dtd">
<!-- Creator: CorelDRAW 2019 (64-Bit) -->
<svg xmlns="http://www.w3.org/2000/svg" xml:space="preserve" width="177.8mm" height="42.3332mm" version="1.1" style="shape-rendering:geometricPrecision; text-rendering:geometricPrecision; image-rendering:optimizeQuality; fill-rule:evenodd; clip-rule:evenodd"
viewBox="0 0 17779.98 4233.32"
 xmlns:xlink="http://www.w3.org/1999/xlink">
 <defs>
  <style type="text/css">
   <![CDATA[
    .fil5 {fill:#FFCC29;fill-rule:nonzero}
    .fil4 {fill:#FAA831;fill-rule:nonzero}
    .fil7 {fill:#E30000;fill-rule:nonzero}
    .fil1 {fill:black;fill-rule:nonzero}
    .fil0 {fill:#454545;fill-rule:nonzero}
    .fil3 {fill:#7C7C7D;fill-rule:nonzero}
    .fil6 {fill:#ACACAC;fill-rule:nonzero}
    .fil2 {fill:#D7D7D7;fill-rule:nonzero}
   ]]>
  </style>
 </defs>
 <g id="Capa_x0020_1">
  <metadata id="CorelCorpID_0Corel-Layer"/>
  <polygon class="fil0" points="10494.88,3482.9 10486.88,2752.98 7996.08,2763.63 8004.07,3512.2 "/>
  <path class="fil1" d="M13118.89 2569.16c-85.25,-2.66 -167.83,10.66 -242.43,29.3 -77.26,21.32 -149.18,53.28 -215.78,98.57 -8,5.33 -15.98,13.32 -21.31,15.98 -8,5.33 -15.98,10.66 -21.32,15.99l-61.26 53.28c-5.33,0 -5.33,2.66 -8,5.33 -10.65,10.65 -23.97,21.31 -34.63,34.63 -42.62,45.28 -82.58,93.24 -109.22,143.85 0,2.67 -2.67,5.33 -5.33,10.66 0,2.66 0,2.66 -2.66,5.32 -10.66,15.99 -18.65,34.64 -26.64,53.28 -2.67,2.67 -5.33,7.99 -5.33,10.66 -37.29,90.58 -55.94,186.48 -58.61,290.37 0,215.78 79.92,399.6 237.1,554.11 154.51,154.51 346.31,234.42 567.42,237.09 221.11,5.32 412.92,-66.6 570.09,-215.78 157.18,-149.19 237.09,-330.34 237.09,-548.78 0,-39.96 0,-79.92 -7.99,-122.54 -2.66,-18.65 -5.33,-34.63 -7.99,-55.94 -2.66,-5.33 -5.33,-8 -5.33,-13.32 0,0 0,-2.67 0,-2.67 -18.65,-63.93 -39.96,-122.54 -71.92,-178.48 -8,-18.65 -21.31,-37.3 -31.98,-53.28 -2.66,-2.67 -5.32,-5.33 -7.99,-10.66 -23.97,-34.63 -53.28,-69.26 -82.58,-103.89 -5.33,-2.67 -10.65,-10.66 -13.32,-13.32 -31.96,-29.31 -61.27,-55.94 -93.24,-79.92 -10.65,-5.33 -18.65,-15.99 -29.3,-21.32 -13.32,-7.99 -26.64,-15.98 -37.3,-23.97 -122.54,-74.59 -258.4,-111.88 -410.24,-114.55zm-5.34 306.35l0 0c63.94,2.67 125.21,13.32 183.82,39.97 39.95,15.98 77.25,37.29 114.55,63.93 2.66,0 5.33,2.66 7.99,5.33 15.98,13.32 29.3,23.97 45.29,39.96 2.67,5.32 5.32,7.99 13.32,13.32 85.25,93.24 130.53,202.46 127.87,330.33 -2.67,133.2 -47.95,245.09 -146.52,335.66 -98.57,90.58 -215.78,135.86 -351.64,133.2 -135.86,-2.67 -255.74,-50.62 -348.98,-146.52 -98.57,-95.91 -146.52,-207.79 -146.52,-340.99 0,-111.89 34.63,-207.79 103.89,-287.7 2.67,-5.34 8,-13.33 15.99,-18.66 7.99,-10.65 18.64,-23.97 29.3,-31.96 5.33,-5.33 10.65,-7.99 15.98,-13.32 18.66,-15.99 37.3,-31.97 58.61,-45.29 79.93,-53.28 173.16,-77.26 277.05,-77.26z"/>
  <path class="fil2" d="M13297.37 2915.48c-58.61,-26.65 -119.88,-37.3 -183.82,-39.97 -103.89,0 -197.12,23.98 -277.05,77.26 -21.31,13.32 -39.95,29.3 -58.61,45.29 -5.33,5.33 -10.65,7.99 -15.98,13.32 -10.66,7.99 -21.31,21.31 -29.3,31.96 -7.99,5.33 -13.32,13.32 -15.99,18.66 -69.26,79.91 -103.89,175.81 -103.89,287.7 0,133.2 47.95,245.08 146.52,340.99 93.24,95.9 213.12,143.85 348.98,146.52 135.86,2.66 253.07,-42.62 351.64,-133.2 98.57,-90.57 143.85,-202.46 146.52,-335.66 2.66,-127.87 -42.62,-237.09 -127.87,-330.33 -8,-5.33 -10.65,-8 -13.32,-13.32 -15.99,-15.99 -29.31,-26.64 -45.29,-39.96 -2.66,-2.67 -5.33,-5.33 -7.99,-5.33 -37.3,-26.64 -74.6,-47.95 -114.55,-63.93zm-242.42 210.45l0 0c-2.67,-2.66 -5.33,-15.98 -5.33,-37.29 0,-31.98 15.98,-45.3 47.95,-45.3 31.97,2.67 47.95,18.66 47.95,45.3 0,13.31 -2.66,23.97 -13.32,37.29 -7.99,10.66 -21.31,15.98 -34.63,15.98 -13.32,0 -21.31,-2.66 -26.64,-2.66 -5.33,-5.33 -7.99,-10.66 -15.98,-13.32zm-55.94 26.64l0 0c0,10.65 -2.67,21.31 -10.66,29.3 -10.66,13.32 -21.32,21.31 -37.29,21.31 -13.32,0 -18.66,-2.66 -26.65,-5.33 -5.33,-5.32 -7.98,-5.32 -15.98,-7.99 -2.67,-7.99 -5.33,-21.31 -5.33,-39.96 0,-34.63 15.98,-50.61 47.96,-45.28 34.63,5.33 47.95,21.31 47.95,47.95zm-181.15 157.17l0 0c0,-34.63 15.98,-50.62 47.95,-47.95 31.96,2.67 50.62,18.65 50.62,47.95 0,13.32 -5.34,23.98 -13.33,31.97 -10.66,13.32 -21.31,18.65 -37.29,18.65 -21.31,0 -34.63,-7.99 -39.96,-23.98 -5.33,-18.65 -7.99,-26.64 -7.99,-26.64zm426.23 -218.45l0 0c31.97,5.34 47.95,21.32 47.95,47.96 0,13.32 -2.67,23.97 -13.32,31.97 -7.99,10.65 -21.31,18.64 -34.63,18.64 -13.32,0 -21.31,0 -26.64,-5.32 -7.99,-5.33 -15.98,-5.33 -18.65,-8 0,-7.99 -2.66,-21.31 -2.66,-39.95 0,-31.97 15.98,-47.95 47.95,-45.3zm42.63 245.09l0 0c-2.67,-18.65 -8,-26.64 -8,-26.64 0,-26.64 18.65,-42.62 50.62,-45.28 29.3,0 47.95,13.32 47.95,45.28 0,13.32 -5.33,21.31 -13.32,31.97 -7.99,13.32 -21.31,18.65 -34.63,18.65 -21.31,0 -34.64,-7.99 -42.62,-23.98zm-55.95 165.17l0 0c0,-31.97 18.65,-45.29 47.95,-45.29 31.97,2.67 50.62,18.65 50.62,47.95 0,10.66 -5.33,21.31 -13.33,31.97 -10.65,10.65 -21.31,18.65 -37.29,18.65 -18.65,0 -34.63,-10.66 -39.96,-26.64 -2.66,-5.33 -7.99,-15.99 -7.99,-26.64zm-133.2 119.88l0 0c-5.33,-2.67 -13.32,-5.33 -18.65,-10.66 -2.66,-2.67 -7.99,-15.99 -7.99,-34.63 0,-31.97 18.65,-47.95 50.61,-45.29 31.98,0 47.96,15.98 47.96,45.29 0,13.32 -5.33,23.98 -10.66,31.96 -10.65,13.33 -21.31,18.66 -37.3,18.66 -10.65,0 -21.31,-2.67 -23.97,-5.33zm-119.88 -85.25l0 0c-10.66,10.65 -21.31,18.65 -39.95,18.65 -21.31,0 -34.64,-10.66 -42.63,-26.64 -2.67,-5.33 -2.67,-13.32 -2.67,-26.64 0,-31.97 13.32,-45.29 47.96,-45.29 31.97,2.67 47.95,18.65 47.95,47.95 0,10.66 -2.66,21.31 -10.66,31.97z"/>
  <path class="fil1" d="M13049.62 3088.64c0,21.31 2.66,34.63 5.33,37.29 7.99,2.66 10.65,7.99 15.98,13.32 5.33,0 13.32,2.66 26.64,2.66 13.32,0 26.64,-5.32 34.63,-15.98 10.66,-13.32 13.32,-23.98 13.32,-37.29 0,-26.64 -15.98,-42.63 -47.95,-45.3 -31.97,0 -47.95,13.32 -47.95,45.3z"/>
  <path class="fil1" d="M12988.35 3181.87c7.99,-7.99 10.66,-18.65 10.66,-29.3 0,-26.64 -13.32,-42.62 -47.95,-47.95 -31.98,-5.33 -47.96,10.65 -47.96,45.28 0,18.65 2.66,31.97 5.33,39.96 8,2.67 10.65,2.67 15.98,7.99 7.99,2.67 13.33,5.33 26.65,5.33 15.97,0 26.63,-7.99 37.29,-21.31z"/>
  <path class="fil1" d="M12865.81 3261.79c-31.97,-2.67 -47.95,13.32 -47.95,47.95 0,0 2.66,7.99 7.99,26.64 5.33,15.99 18.65,23.98 39.96,23.98 15.98,0 26.63,-5.33 37.29,-18.65 7.99,-7.99 13.33,-18.65 13.33,-31.97 0,-29.3 -18.66,-45.28 -50.62,-47.95z"/>
  <path class="fil1" d="M13292.04 3139.25c0,-26.64 -15.98,-42.62 -47.95,-47.96 -31.97,-2.65 -47.95,13.33 -47.95,45.3 0,18.64 2.66,31.96 2.66,39.95 2.67,2.67 10.66,2.67 18.65,8 5.33,5.32 13.32,5.32 26.64,5.32 13.32,0 26.64,-7.99 34.63,-18.64 10.65,-8 13.32,-18.65 13.32,-31.97z"/>
  <path class="fil1" d="M13278.72 3309.74c0,0 5.33,7.99 8,26.64 7.98,15.99 21.31,23.98 42.62,23.98 13.32,0 26.64,-5.33 34.63,-18.65 7.99,-10.66 13.32,-18.65 13.32,-31.97 0,-31.96 -18.65,-45.28 -47.95,-45.28 -31.97,2.66 -50.62,18.64 -50.62,45.28z"/>
  <path class="fil1" d="M13278.72 3456.26c-29.3,0 -47.95,13.32 -47.95,45.29 0,10.65 5.33,21.31 7.99,26.64 5.33,15.98 21.31,26.64 39.96,26.64 15.98,0 26.64,-8 37.29,-18.65 8,-10.66 13.33,-21.31 13.33,-31.97 0,-29.3 -18.65,-45.28 -50.62,-47.95z"/>
  <path class="fil1" d="M13078.92 3610.77c5.33,5.33 13.32,7.99 18.65,10.66 2.66,2.66 13.32,5.33 23.97,5.33 15.99,0 26.65,-5.33 37.3,-18.66 5.33,-7.98 10.66,-18.64 10.66,-31.96 0,-29.31 -15.98,-45.29 -47.96,-45.29 -31.96,-2.66 -50.61,13.32 -50.61,45.29 0,18.64 5.33,31.96 7.99,34.63z"/>
  <path class="fil1" d="M12937.74 3554.83c18.64,0 29.29,-8 39.95,-18.65 8,-10.66 10.66,-21.31 10.66,-31.97 0,-29.3 -15.98,-45.28 -47.95,-47.95 -34.64,0 -47.96,13.32 -47.96,45.29 0,13.32 0,21.31 2.67,26.64 7.99,15.98 21.32,26.64 42.63,26.64z"/>
  <path class="fil1" d="M2340.49 2683.71c-133.2,-90.57 -285.04,-138.52 -452.87,-141.19 -45.3,0 -85.25,2.67 -125.21,7.99 -133.2,15.99 -253.08,61.27 -359.64,138.53 -5.33,5.32 -15.99,10.65 -21.31,15.99l-61.27 53.27c0,0 -2.67,5.33 -5.33,7.99 -21.31,15.99 -39.96,37.3 -58.61,55.95 -34.63,39.95 -66.6,82.58 -90.57,130.53 -10.66,18.65 -21.31,39.96 -31.97,58.61 -42.62,93.24 -61.27,194.47 -61.27,303.69 -2.66,189.14 58.61,359.64 181.14,503.49 15.99,18.65 34.64,37.3 53.29,58.61 157.17,154.51 346.31,234.42 570.08,239.76 223.78,2.66 418.25,-71.93 575.42,-218.45 159.84,-151.84 239.76,-335.66 242.42,-554.11 0,-42.62 -2.66,-85.25 -7.99,-125.2 -2.66,-15.99 -7.99,-37.3 -10.65,-53.28 0,-5.33 -2.67,-10.66 -2.67,-13.32 0,-2.67 0,-2.67 0,-5.33 -15.98,-63.93 -42.62,-125.21 -74.59,-181.15 -13.32,-21.31 -23.98,-39.96 -37.3,-61.27 -21.31,-29.31 -42.62,-58.61 -63.93,-82.58 -13.32,-13.32 -23.97,-23.98 -37.29,-37.3 -39.97,-37.29 -79.93,-71.93 -119.88,-101.23zm-889.77 900.42l0 0c-50.62,-74.59 -74.59,-162.5 -71.93,-255.74 0,-109.22 34.64,-207.79 103.9,-290.37 13.32,-18.65 26.64,-31.97 45.29,-47.95 5.32,-5.33 10.66,-10.66 15.98,-13.32 79.92,-71.93 170.49,-111.89 271.73,-119.88 21.31,-2.67 42.62,-5.33 63.93,-2.67 117.21,2.67 215.78,34.63 301.03,101.24 18.65,13.32 37.29,29.3 53.28,47.95 5.32,2.66 10.66,7.99 13.32,13.32 90.57,93.24 133.19,202.46 133.19,330.33 0,87.91 -21.31,167.83 -66.59,237.09 -21.31,37.3 -50.62,71.93 -82.59,103.9 -98.56,93.24 -218.44,135.86 -354.31,133.19 -141.19,0 -255.73,-50.61 -354.3,-146.51 -29.31,-29.31 -53.28,-58.61 -71.93,-90.58z"/>
  <path class="fil2" d="M1378.79 3328.39c-2.66,93.24 21.31,181.15 71.93,255.74 18.65,31.97 42.62,61.27 71.93,90.58 98.57,95.9 213.11,146.51 354.3,146.51 135.87,2.67 255.75,-39.95 354.31,-133.19 31.97,-31.97 61.28,-66.6 82.59,-103.9 45.28,-69.26 66.59,-149.18 66.59,-237.09 0,-127.87 -42.62,-237.09 -133.19,-330.33 -2.66,-5.33 -8,-10.66 -13.32,-13.32 -15.99,-18.65 -34.63,-34.63 -53.28,-47.95 -85.25,-66.61 -183.82,-98.57 -301.03,-101.24 -21.31,-2.66 -42.62,0 -63.93,2.67 -101.24,7.99 -191.81,47.95 -271.73,119.88 -5.32,2.66 -10.66,7.99 -15.98,13.32 -18.65,15.98 -31.97,29.3 -45.29,47.95 -69.26,82.58 -103.9,181.15 -103.9,290.37zm687.31 -162.5l0 0c0,10.65 -5.33,18.65 -13.32,29.3 -10.66,10.66 -21.31,18.65 -37.3,18.65 -10.65,0 -18.65,-2.67 -23.97,-5.32 -10.66,-2.67 -18.65,-5.34 -18.65,-8 -2.66,-7.99 -2.66,-21.31 -2.66,-39.96 0,-31.97 15.98,-47.95 45.28,-45.29 34.63,5.33 50.62,21.32 50.62,50.62zm34.63 122.54l0 0c31.97,0 47.95,13.32 47.95,45.29 0,10.65 -2.66,21.31 -10.65,34.63 -10.66,10.65 -23.98,15.98 -37.3,15.98 -21.31,0 -34.63,-7.99 -39.96,-26.64 -5.32,-15.98 -7.99,-23.97 -7.99,-26.64 0,-26.63 15.98,-39.95 47.95,-42.62zm-420.91 -77.26l0 0c-2.66,-5.32 -2.66,-18.64 -2.66,-37.29 0,-34.63 15.98,-47.95 47.95,-45.29 31.96,2.67 47.95,21.31 47.95,47.95 0,10.66 -2.66,21.31 -13.32,29.31 -7.99,13.32 -18.64,18.64 -37.3,18.64 -10.65,0 -18.64,0 -23.97,-2.66 -5.33,-2.66 -10.66,-5.33 -18.65,-10.66zm-39.96 77.26l0 0c31.97,0 47.95,15.99 47.95,45.29 0,10.65 -5.32,23.97 -10.65,34.63 -10.66,10.65 -23.98,15.98 -37.3,15.98 -21.31,0 -37.29,-7.99 -42.62,-26.64 -2.66,-15.98 -8,-23.97 -8,-26.64 0,-31.96 18.66,-47.95 50.62,-42.62zm279.72 -175.82l0 0c0,13.32 -5.33,26.64 -13.32,37.29 -10.66,10.66 -21.31,15.99 -37.3,15.99 -10.65,0 -18.64,0 -23.97,-2.67 -5.33,-5.32 -10.66,-10.65 -18.65,-13.32 -2.66,-5.32 -5.33,-18.64 -5.33,-37.29 0,-31.97 15.99,-47.95 47.95,-45.29 34.63,2.66 50.62,18.65 50.62,45.29zm-159.84 415.58l0 0c0,10.65 -2.67,21.31 -10.65,29.3 -7.99,13.32 -21.32,18.65 -37.3,18.65 -21.31,0 -37.3,-7.99 -45.29,-21.31 0,-8 -2.66,-15.99 -2.66,-26.64 0,-34.63 15.98,-50.62 50.61,-45.29 31.97,0 45.29,15.98 45.29,45.29zm109.22 119.88l0 0c-5.32,-5.33 -10.65,-7.99 -15.98,-13.32 -5.33,-5.34 -7.99,-15.99 -7.99,-37.3 0,-29.3 15.98,-42.62 47.95,-42.62 34.63,0 50.62,15.98 50.62,45.29 0,10.65 -5.34,23.97 -13.32,34.63 -10.66,10.65 -21.31,15.98 -37.3,15.98 -10.66,0 -18.65,-2.66 -23.98,-2.66zm183.82 -71.93l0 0c-18.65,0 -34.63,-7.99 -39.96,-21.31 -5.33,-10.66 -7.99,-18.65 -7.99,-26.64 0,-34.63 15.98,-50.62 47.95,-45.29 31.96,0 47.95,15.98 47.95,45.29 0,10.65 -2.66,21.31 -10.65,29.3 -10.66,13.32 -23.98,18.65 -37.3,18.65z"/>
  <path class="fil1" d="M2052.78 3195.19c7.99,-10.65 13.32,-18.65 13.32,-29.3 0,-29.3 -15.99,-45.29 -50.62,-50.62 -29.3,-2.66 -45.28,13.32 -45.28,45.29 0,18.65 0,31.97 2.66,39.96 0,2.66 7.99,5.33 18.65,8 5.32,2.65 13.32,5.32 23.97,5.32 15.99,0 26.64,-7.99 37.3,-18.65z"/>
  <path class="fil1" d="M2148.68 3333.72c0,-31.97 -15.98,-45.29 -47.95,-45.29 -31.97,2.67 -47.95,15.99 -47.95,42.62 0,2.67 2.67,10.66 7.99,26.64 5.33,18.65 18.65,26.64 39.96,26.64 13.32,0 26.64,-5.33 37.3,-15.98 7.99,-13.32 10.65,-23.98 10.65,-34.63z"/>
  <path class="fil1" d="M1677.16 3173.88c0,18.65 0,31.97 2.66,37.29 7.99,5.33 13.32,8 18.65,10.66 5.33,2.66 13.32,2.66 23.97,2.66 18.66,0 29.31,-5.32 37.3,-18.64 10.66,-8 13.32,-18.65 13.32,-29.31 0,-26.64 -15.99,-45.28 -47.95,-47.95 -31.97,-2.66 -47.95,10.66 -47.95,45.29z"/>
  <path class="fil1" d="M1687.81 3333.72c0,-29.3 -15.98,-45.29 -47.95,-45.29 -31.96,-5.33 -50.62,10.66 -50.62,42.62 0,2.67 5.34,10.66 8,26.64 5.33,18.65 21.31,26.64 42.62,26.64 13.32,0 26.64,-5.33 37.3,-15.98 5.33,-10.66 10.65,-23.98 10.65,-34.63z"/>
  <path class="fil1" d="M1906.26 3149.9c7.99,-10.65 13.32,-23.97 13.32,-37.29 0,-26.64 -15.99,-42.63 -50.62,-45.29 -31.96,-2.66 -47.95,13.32 -47.95,45.29 0,18.65 2.67,31.97 5.33,37.29 7.99,2.67 13.32,8 18.65,13.32 5.33,2.67 13.32,2.67 23.97,2.67 15.99,0 26.64,-5.33 37.3,-15.99z"/>
  <path class="fil1" d="M1749.09 3557.49c7.98,-7.99 10.65,-18.65 10.65,-29.3 0,-29.31 -13.32,-45.29 -45.29,-45.29 -34.63,-5.33 -50.61,10.66 -50.61,45.29 0,10.65 2.66,18.64 2.66,26.64 7.99,13.32 23.98,21.31 45.29,21.31 15.98,0 29.31,-5.33 37.3,-18.65z"/>
  <path class="fil1" d="M1852.98 3634.75c5.33,5.33 10.66,7.99 15.98,13.32 5.33,0 13.32,2.66 23.98,2.66 15.99,0 26.64,-5.33 37.3,-15.98 7.98,-10.66 13.32,-23.98 13.32,-34.63 0,-29.31 -15.99,-45.29 -50.62,-45.29 -31.97,0 -47.95,13.32 -47.95,42.62 0,21.31 2.66,31.96 7.99,37.3z"/>
  <path class="fil1" d="M2012.82 3554.83c5.33,13.32 21.31,21.31 39.96,21.31 13.32,0 26.64,-5.33 37.3,-18.65 7.99,-7.99 10.65,-18.65 10.65,-29.3 0,-29.31 -15.99,-45.29 -47.95,-45.29 -31.97,-5.33 -47.95,10.66 -47.95,45.29 0,7.99 2.66,15.98 7.99,26.64z"/>
  <polygon class="fil3" points="683.5,2265.47 728.79,2166.9 603.58,1972.43 233.29,1975.09 233.29,2268.13 "/>
  <path class="fil4" d="M409.11 2398.67l149.18 2.66c55.95,-29.31 90.58,-58.61 101.23,-87.91l-301.02 -7.99c0,7.99 2.66,15.98 5.33,26.64 5.32,23.98 21.31,47.95 45.28,66.6z"/>
  <path class="fil1" d="M835.34 3735.98l15.99 -303.69 245.09 -769.89 -823.17 -21.31c-61.27,10.65 -101.23,45.28 -114.55,101.22 -5.33,26.65 -8,53.29 -8,79.93 -7.99,95.9 0,191.8 21.32,287.71l74.59 181.15c45.29,37.29 87.91,82.58 125.21,138.52 114.54,45.29 202.46,93.24 266.39,146.52 13.32,98.57 79.92,151.84 197.13,159.84zm-370.29 -900.42l0 0 87.92 74.58 0 138.53 -117.22 103.9 -178.48 -2.67 -42.63 -87.9 2.67 -175.83 58.6 -53.28 189.14 2.67z"/>
  <polygon class="fil0" points="552.97,2910.14 465.05,2835.56 275.91,2832.89 217.31,2886.17 214.64,3062 257.27,3149.9 435.75,3152.57 552.97,3048.67 "/>
  <path class="fil1" d="M6088.68 1746l-74.59 18.64 -2.66 394.27 74.59 0c21.31,-138.52 21.31,-277.05 2.66,-412.91z"/>
  <path class="fil0" d="M11350.01 2974.08l141.19 31.97 13.32 -47.95c274.39,47.95 556.77,74.59 852.47,85.24 0,0 0,-2.65 0,-5.32 7.99,-18.65 21.31,-39.96 31.97,-58.61 2.66,-7.99 5.32,-13.32 7.99,-15.98 -298.36,-5.33 -588.74,-31.97 -871.11,-77.26l2.65 -10.66 2.67 -165.16 -333 2.66 151.85 261.07z"/>
  <path class="fil0" d="M14184.47 2899.49l162.5 -47.95 261.07 127.87 39.96 -77.26 857.8 399.6 199.79 213.12 847.14 0 0 -71.93 596.73 0 0 61.27 101.23 0 106.56 -311.68 -207.79 0 0 90.57 -596.73 0 0 -85.25 -221.1 0 -130.54 0 -149.18 0 -122.54 0 -282.38 0 -1038.95 -479.51 0 -50.61 -554.1 7.99 63.93 106.56c-66.6,13.32 -133.2,26.64 -199.8,39.96 -61.27,10.65 -122.54,23.97 -183.81,34.63 21.31,21.31 37.29,45.28 55.94,69.26 0,0 0,2.67 2.66,5.33 2.67,0 2.67,2.66 2.67,5.33 119.88,-23.98 245.09,-47.96 367.63,-71.93l21.31 34.63z"/>
  <polygon class="fil5" points="6496.27,152.94 6387.05,152.94 6387.05,190.24 6496.27,190.24 "/>
  <path class="fil1" d="M12857.81 2537.2c74.59,-21.32 159.84,-34.64 255.74,-37.3 237.1,5.32 410.26,66.6 519.48,178.48l420.91 -2.66 554.1 -7.99 724.6 -18.65 596.73 548.77 122.54 0 -588.74 -551.44 431.56 -10.65 298.37 282.38 7.99 279.71 130.54 0 -13.32 -346.31 -90.58 -101.23 2.66 -364.97 -9893.96 0 0 -2.66 -245.08 2.66c-7.99,143.86 -23.98,290.38 -50.62,436.9 -13.32,77.25 -29.3,157.17 -47.95,237.09 55.94,0 125.21,-7.99 205.13,-23.98 34.63,-5.33 71.93,-15.98 106.56,-23.97 93.23,-26.64 189.14,-63.94 282.37,-111.89 42.63,-29.3 90.58,-53.28 138.53,-77.25 122.55,-55.95 261.07,-85.25 418.25,-90.58 21.31,-2.66 45.28,-2.66 66.6,-2.66l3987.94 -15.99 333 -2.66 1025.63 -15.99c7.99,-7.99 13.31,-10.65 21.31,-18.64 71.93,-63.94 167.83,-109.22 279.71,-138.52z"/>
  <polygon class="fil6" points="16230.39,2385.34 17200.08,2385.34 17714.22,2145.59 7255.5,2145.59 7255.5,2092.31 6544.22,190.24 6496.27,190.24 6387.05,190.24 6336.43,190.24 6336.43,2382.68 6336.43,2385.34 "/>
  <path class="fil0" d="M2060.77 2078.99l-378.28 -5.33 -69.27 39.96c-221.1,45.29 -402.26,133.2 -535.45,266.4 -63.94,61.27 -117.22,133.2 -159.84,213.12l213.12 5.32c21.31,-31.96 47.95,-61.26 77.25,-87.91 138.53,-141.19 338.32,-213.11 588.74,-218.44 95.9,0 202.46,7.99 314.35,26.64 269.05,31.96 487.5,197.13 650.01,503.49 71.92,135.86 133.19,298.36 183.8,487.5l151.85 -37.29c-42.62,-165.17 -95.9,-317.01 -151.85,-450.21 -18.64,-37.3 -31.96,-71.93 -47.95,-106.56 -181.15,-343.66 -447.54,-548.78 -801.85,-610.05l-34.63 -26.64z"/>
  <polygon class="fil4" points="744.77,2004.4 688.83,2001.73 782.07,2158.91 742.11,2268.13 784.73,2268.13 864.65,2268.13 912.6,2166.9 835.34,2007.06 "/>
  <polygon class="fil0" points="702.14,1913.83 744.77,2004.4 835.34,2007.06 776.74,1876.53 659.52,1815.26 353.17,1809.93 353.17,1706.04 289.23,1716.69 262.59,1775.3 262.59,1905.83 "/>
  <path class="fil0" d="M864.65 2268.13l-79.92 0 -21.31 50.62 -45.29 -2.67c-39.96,71.93 -87.91,117.22 -149.18,125.21 -2.66,0 -7.99,0 -7.99,0 -13.33,2.66 -23.98,2.66 -34.64,0l-135.86 -2.66c-23.98,-18.65 -45.29,-50.62 -58.61,-95.91 0,-2.66 0,-2.66 0,-2.66 -5.32,-7.99 -7.99,-15.99 -7.99,-23.98l-45.28 -2.66 -2.67 157.17 -29.3 13.32 0 98.57 479.51 10.66 138.53 -325.01z"/>
  <path class="fil2" d="M4631.5 2529.2l-10.66 63.94 671.32 -247.75 -7.99 53.28 692.63 -239.76c0,-119.88 0,-239.76 2.66,-362.3l0 -2.66 -628.69 322.34 7.99 -50.62 -618.04 319.67 10.66 -53.27 -615.38 317.01 7.99 -50.62 -604.72 311.68 439.55 -175.82 -10.65 50.62 663.33 -255.74z"/>
  <polygon class="fil4" points="5300.15,326.1 5300.15,240.85 5252.2,174.26 4809.98,174.26 4740.72,219.54 4738.06,326.1 4884.58,326.1 5166.95,326.1 "/>
  <path class="fil6" d="M4884.58 416.67l26.63 0 50.62 0c66.59,-2.66 135.86,-2.66 205.12,0l0 -90.57 -282.37 0 0 90.57z"/>
  <path class="fil7" d="M3549.93 816.27c-205.13,125.21 -436.9,277.05 -697.96,458.2 -524.8,23.98 -964.35,55.94 -1321.33,93.24 -522.14,53.28 -868.45,122.54 -1033.61,205.13 -15.99,7.99 -29.31,15.98 -42.63,26.64 -45.29,29.3 -74.59,58.6 -90.57,87.9l-10.66 18.66 0 103.89 306.35 5.33 117.22 61.27 58.6 130.53 77.26 159.84 -47.95 101.23 -138.53 325.01 191.81 0c42.62,-79.92 95.9,-151.85 159.84,-213.12 133.19,-133.2 314.35,-221.11 535.45,-266.4l69.27 -39.96 378.28 5.33 34.63 26.64c354.31,61.27 620.7,266.39 801.85,610.05 15.99,34.63 29.31,69.26 47.95,106.56 55.95,133.2 109.23,285.04 151.85,450.21 2.66,15.98 10.66,29.3 13.33,47.95l-157.18 2.66 13.31 93.24 2690.61 -53.28 202.46 5.33c45.29,-183.81 79.93,-362.3 111.89,-546.11 18.65,-125.21 39.96,-255.74 53.28,-380.95 -23.98,85.24 -37.3,170.49 -39.96,255.74l-490.17 167.83 5.33 -34.63 0 -2.67 -468.86 175.83 5.33 -45.29 -468.86 181.15 10.66 -37.3 -311.69 122.54 426.23 -218.44 -7.99 37.29 436.9 -223.77 -10.66 37.3 439.55 -223.77 -7.98 31.96 444.87 -226.43 37.3 0c2.66,-18.65 5.33,-39.96 5.33,-58.61 7.99,-61.27 13.32,-119.88 15.98,-175.83l-69.26 -2.65 0 -42.63 -692.63 239.76 7.99 -53.28 -671.32 247.75 10.66 -63.94 -663.33 255.74 10.65 -50.62 -439.55 175.82 604.72 -311.68 -7.99 50.62 615.38 -317.01 -10.66 53.27 618.04 -319.67 -7.99 50.62 628.69 -322.34 0 -74.59 63.94 -26.64c0,-31.97 -2.67,-63.94 -8,-93.24 -34.63,-346.32 -106.56,-692.63 -207.78,-1030.96 -37.3,-87.91 -114.56,-130.53 -226.44,-135.86 -149.18,-7.99 -293.04,-15.99 -434.23,-15.99 -69.26,-2.66 -138.53,-2.66 -205.12,0l-50.62 0c-245.08,5.33 -474.18,23.98 -684.64,55.95 -173.15,61.27 -396.92,175.82 -676.64,343.65zm-138.53 426.24l0 0 66.6 -114.56c15.98,-18.64 37.3,-23.97 69.26,-21.31 5.33,0 13.32,0 18.65,0l309.02 -234.43c242.42,-173.15 516.81,-261.07 823.16,-269.06l452.88 7.99c101.23,2.67 157.17,66.61 162.5,189.14l37.3 668.66 -1699.62 77.26 0 42.62c-5.32,5.33 -10.65,7.99 -18.64,10.66 -2.67,0 -7.99,0 -13.32,2.66 10.65,-2.66 21.31,-2.66 31.96,-2.66 18.66,0 34.63,0 53.29,0 644.67,-34.63 1337.3,-66.61 2075.23,-93.24l10.65 181.14c-612.71,5.34 -1361.29,21.32 -2245.72,50.62 -540.79,15.99 -1134.85,39.96 -1779.53,69.26 -290.37,10.67 -594.07,21.32 -908.41,37.3l-114.55 -50.61c314.35,-26.64 647.34,-53.28 1001.65,-77.26 530.12,-37.3 1102.88,-74.59 1715.59,-103.89 5.33,-2.67 10.66,-2.67 13.32,-2.67 -2.66,-2.66 -7.99,-7.99 -13.32,-10.65l-47.95 -39.96 -319.68 13.32 -23.97 -61.28 343.65 -269.05zm1934.04 519.47l0 0 0 106.55 -460.86 8 0 -103.9 460.86 -10.65z"/>
  <path class="fil1" d="M3478 1127.95l-66.6 114.56 -343.65 269.05 23.97 61.28 319.68 -13.32 47.95 39.96c5.33,2.66 10.66,7.99 13.32,10.65 21.31,10.66 45.28,10.66 71.93,10.66 21.31,-2.67 47.95,-7.99 74.59,-18.65 5.33,-2.66 10.65,-2.66 13.32,-2.66 7.99,-2.67 13.32,-5.33 18.64,-10.66l0 -42.62 -29.3 -415.58 -55.94 -23.98c-5.33,0 -13.32,0 -18.65,0 -31.96,-2.66 -53.28,2.67 -69.26,21.31z"/>
  <polygon class="fil1" points="5345.44,1868.53 5345.44,1761.98 4884.58,1772.63 4884.58,1876.53 "/>
  <path class="fil2" d="M4266.53 3224.49l311.69 -122.54 -10.66 37.3 468.86 -181.15 -5.33 45.29 468.86 -175.83 0 2.67 -5.33 34.63 490.17 -167.83c2.66,-85.25 15.98,-170.5 39.96,-255.74l0 -2.66 -37.3 0 -444.87 226.43 7.98 -31.96 -439.55 223.77 10.66 -37.3 -436.9 223.77 7.99 -37.29 -426.23 218.44z"/>
  <path class="fil2" d="M4413.05 1999.07l-178.48 253.08 274.38 426.23 13.33 0 10.65 61.28 13.32 0 0 15.98c-5.33,0 -8,2.66 -10.65,7.99 -5.33,2.66 -8,10.66 -8,15.98 0,10.66 2.67,15.99 8,21.32 2.65,5.32 5.32,5.32 10.65,5.32l0 23.98c-23.97,13.32 -37.3,34.63 -34.63,61.27 2.66,34.63 21.31,50.62 47.95,58.61 31.97,5.33 55.94,-10.66 69.26,-45.29 2.67,-18.65 -2.66,-31.96 -13.32,-47.95 -7.99,0 -10.65,2.66 -7.99,5.32 10.66,23.98 7.99,42.63 -5.33,53.29 -18.64,13.32 -34.63,13.32 -50.61,2.66 -15.98,-18.65 -15.98,-34.63 0,-55.95 7.99,-5.32 10.65,-15.98 13.32,-26.63l0 -29.31c0,0 0,0 0,0 2.66,0 7.99,-2.66 10.65,-5.32 2.67,-5.33 5.33,-10.66 5.33,-21.32 0,-5.32 -2.66,-13.32 -5.33,-15.98 -2.66,-5.33 -7.99,-7.99 -10.65,-7.99 0,0 0,0 0,0l0 -15.98 13.32 0 13.32 -61.28 13.32 0 279.72 -426.23 -186.49 -253.08 -119.87 0 0 -39.96 23.97 0 0 -26.64 -90.57 0 0 26.64 26.63 0 0 39.96 -125.2 0zm151.85 767.22l0 0 0 2.67c5.33,2.66 7.99,7.99 7.99,13.32 0,5.33 -2.66,10.65 -5.33,10.65l-2.66 2.67c0,0 0,0 0,0 -2.67,2.66 -5.33,2.66 -10.66,2.66 -2.66,0 -5.33,0 -7.99,-2.66 0,0 -2.66,0 -5.33,-2.67 -2.67,0 -2.67,-5.32 -2.67,-10.65 0,-5.33 0,-10.66 2.67,-13.32 2.67,-2.67 5.33,-2.67 5.33,-2.67 2.66,0 5.33,-2.66 7.99,-2.66 5.33,0 7.99,2.66 10.66,2.66 0,0 0,0 0,0zm-314.35 -511.48l0 0 167.83 -242.42 274.38 0 173.16 242.42 -266.39 407.59 -85.25 0 -263.73 -407.59z"/>
  <path class="fil7" d="M4564.9 2768.96l0 -2.67c0,0 0,0 0,0 -2.67,0 -5.33,-2.66 -10.66,-2.66 -2.66,0 -5.33,2.66 -7.99,2.66 0,0 -2.66,0 -5.33,2.67 -2.67,2.66 -2.67,7.99 -2.67,13.32 0,5.33 0,10.65 2.67,10.65 2.67,2.67 5.33,2.67 5.33,2.67 2.66,2.66 5.33,2.66 7.99,2.66 5.33,0 7.99,0 10.66,-2.66 0,0 0,0 0,0l2.66 -2.67c2.67,0 5.33,-5.32 5.33,-10.65 0,-5.33 -2.66,-10.66 -7.99,-13.32z"/>
  <path class="fil7" d="M4418.38 2012.39l-167.83 242.42 263.73 407.59 85.25 0 266.39 -407.59 -173.16 -242.42 -274.38 0zm165.17 167.83l0 0 5.32 71.93 -66.59 0 5.32 -71.93 55.95 0zm-181.15 159.84l0 0c2.66,5.33 2.66,5.33 2.66,7.99 0,5.33 0,10.65 0,13.32l-2.66 0c0,0 -2.67,0 -8,2.66 -2.66,2.67 -5.32,2.67 -5.32,0l0 -2.66c2.66,-2.67 2.66,-2.67 2.66,-2.67 0,-5.32 0,-5.32 -2.66,-7.99 -2.67,-2.66 -5.33,-2.66 -10.66,-2.66 -2.66,0 -5.33,2.66 -10.65,5.33 -2.67,2.67 -5.33,5.32 -8,7.99 0,5.33 0,7.99 2.67,10.65 0,0 2.66,2.67 5.33,2.67 0,0 2.65,0 7.99,-2.67 0,-2.66 2.66,-5.32 2.66,-5.32 2.67,0 2.67,0 2.67,0 0,0 0,0 0,2.66 2.66,2.66 2.66,2.66 5.32,2.66 2.67,2.67 2.67,2.67 2.67,2.67 0,2.67 0,2.67 0,2.67 -2.67,2.66 -2.67,2.66 -7.99,2.66 -2.67,2.66 -2.67,5.32 -2.67,5.32 -5.33,2.67 -10.65,8 -15.98,13.33 -2.67,-2.67 -2.67,-5.33 -2.67,-5.33l0 -2.66c-7.99,-2.67 -10.66,-5.34 -10.66,-10.66 -5.32,-5.33 -7.98,-10.66 -2.66,-18.65 2.66,-5.32 5.33,-13.32 13.32,-18.65 8,-5.33 15.99,-7.99 23.98,-10.65 7.99,0 15.98,2.66 18.65,7.99zm13.32 26.64l0 0 2.66 0c0,0 0,0 0,0l5.33 7.99c2.66,2.67 5.32,5.33 5.32,7.99 2.67,2.66 5.33,8 2.67,10.66 0,2.66 0,2.66 0,2.66 0,5.33 -2.67,10.65 -7.99,13.32 -5.33,2.67 -5.33,2.67 -7.99,5.33 -2.67,0 -8,0 -10.66,0l-10.66 10.66c-2.66,7.99 -5.32,10.65 -5.32,10.65 0,0 0,0 -2.67,0l-2.66 -2.66c-2.66,-2.67 -2.66,-5.33 -5.33,-7.99l0 -2.67c2.67,0 2.67,-2.66 5.33,-2.66 2.66,-2.66 5.33,-7.99 7.99,-13.33 0,0 0,0 0,0l0 -5.32 -2.66 2.67c0,2.65 -2.67,2.65 -7.99,5.32 -2.67,2.67 -5.33,2.67 -8,5.33 0,0 0,0 0,0 -2.67,-2.66 -2.67,-2.66 -5.32,-2.66 0,-5.34 -2.67,-5.34 -2.67,-5.34 0,-2.65 0,-2.65 0,-2.65l2.67 0c0,-2.67 5.32,-5.33 10.65,-10.66 7.99,-2.66 10.66,-8 13.32,-8 7.99,-5.32 13.32,-10.65 18.65,-13.32 2.66,0 5.33,-5.32 5.33,-5.32zm26.63 34.63l0 0c0,-2.66 0,-2.66 0,-2.66 2.67,2.66 2.67,5.33 2.67,7.98 2.66,0 2.66,0 5.33,2.67l0 2.67c-2.67,0 -5.33,5.33 -13.32,10.65 -5.33,7.99 -8,10.66 -13.32,13.32 -5.33,2.67 -5.33,7.99 -5.33,7.99 -2.66,2.67 0,5.33 0,5.33 5.33,2.67 10.65,2.67 13.32,-2.66 2.66,0 7.99,-7.99 13.32,-13.32 7.99,-7.99 13.32,-10.66 13.32,-13.32l2.66 0c0,0 2.67,0 5.33,2.66 2.66,0 2.66,2.67 5.33,2.67 0,0 0,0 0,2.66 -2.67,2.66 -7.99,5.33 -13.32,10.66 -5.33,5.32 -10.66,7.99 -13.32,10.65 0,2.67 0,2.67 0,2.67 -2.67,2.66 -2.67,5.32 -2.67,5.32 -7.99,5.33 -10.65,8 -13.32,8 -7.99,5.32 -13.31,0 -21.31,-5.33 -2.66,-2.67 -5.32,-5.33 -5.32,-7.99 -2.67,-5.33 -2.67,-5.33 0,-10.66 2.66,-2.66 2.66,-5.33 7.99,-7.99 2.66,-2.67 2.66,-2.67 5.33,-5.33 0,-2.66 2.66,-2.66 2.66,-5.33 2.66,-2.66 5.33,-5.32 10.65,-10.65 0,0 0,0 0,0 2.67,-5.34 8,-5.34 10.66,-7.99 0,-2.67 0,-2.67 2.66,-2.67zm5.33 87.91l0 0c0,0 -2.66,0 -5.33,-2.66 -2.66,0 -2.66,-2.67 -2.66,-2.67 0,-2.66 5.33,-10.65 18.65,-23.97 13.32,-13.32 21.31,-21.31 23.97,-23.98l2.67 -2.66 0 2.66 2.66 0c2.66,2.67 2.66,2.67 5.33,2.67 0,0 0,0 2.66,0 0,2.66 0,2.66 0,5.32 0,0 0,2.67 0,2.67 -2.66,2.66 -2.66,7.99 -5.33,15.98 -2.66,2.67 -2.66,10.66 -5.32,13.32 -2.67,21.31 -5.33,29.3 -5.33,31.97l-2.66 2.66c-2.67,-2.66 -2.67,-5.33 -5.33,-5.33 -2.67,-2.66 -2.67,-2.66 -5.33,-2.66 0,-2.66 0,-2.66 0,-2.66 2.66,-2.67 2.66,-8 2.66,-8l-7.99 -5.32 -5.33 -2.67c0,0 -2.66,2.67 -2.66,2.67 -2.66,2.66 -2.66,2.66 -5.33,2.66zm319.68 -117.22l0 0c-2.66,8 -7.99,10.66 -15.98,13.32 -8,0 -15.99,-2.66 -23.98,-5.32 -2.66,-2.66 -2.66,-2.66 -2.66,-2.66 -5.34,-5.34 -13.32,-10.66 -15.99,-15.99 -2.67,-5.32 -5.32,-13.32 0,-18.65 2.67,-7.99 5.33,-10.65 15.99,-10.65 7.99,0 13.32,0 23.97,5.32 10.66,2.67 15.99,10.66 18.65,15.99 5.33,7.99 5.33,13.32 0,18.64zm-29.3 29.31l0 0c0,7.99 0,13.32 -2.67,18.65 0,2.66 -2.66,5.33 -5.33,10.65 -2.66,0 -2.66,2.67 -5.32,2.67 0,0 0,2.66 0,2.66 0,2.67 0,2.67 -2.67,0 -2.67,0 -7.99,-2.66 -10.65,-10.65 -2.67,0 -2.67,0 -2.67,0 -2.67,-5.33 -7.99,-5.33 -10.66,-7.99 0,-2.67 -5.33,-5.33 -13.32,-10.67 -2.66,-5.32 -7.99,-7.98 -10.65,-7.98 -2.67,-2.67 -2.67,-2.67 0,-5.33 0,0 2.66,0 5.33,-5.33 2.66,-5.33 5.32,-7.99 5.32,-7.99 5.34,-5.33 7.99,-8 13.32,-8 2.67,0 7.99,0 13.33,2.67 2.66,0 7.98,5.33 10.65,5.33 5.33,7.99 13.32,13.32 15.99,21.31zm-71.93 0l0 0 2.66 0c2.66,2.67 5.33,5.32 10.66,10.66 2.66,5.33 5.32,7.99 7.99,10.65 2.67,2.67 7.99,7.99 10.65,13.32 7.99,5.33 10.66,10.66 13.33,10.66l0 2.66c0,0 -2.67,2.67 -2.67,2.67 -2.67,5.32 -5.32,5.32 -7.99,5.32 0,2.67 0,2.67 0,0l-5.33 -5.32c0,-2.67 -2.67,-5.33 -2.67,-5.33 -2.65,0 -2.65,0 -2.65,0 -5.34,-7.99 -10.66,-13.32 -10.66,-13.32 -2.67,-2.67 -8,-7.99 -10.66,-10.66 -5.33,-2.66 -10.66,-7.99 -10.66,-10.65 0,-2.67 0,-2.67 0,-5.34 2.67,0 2.67,0 2.67,0 0,0 0,0 2.66,-2.65 2.67,-2.67 2.67,-2.67 2.67,-2.67zm-34.63 31.97l0 0c0,-2.67 0,-2.67 0,-2.67 0,0 0,0 2.66,0 0,-2.66 2.66,-2.66 2.66,-5.32 2.67,0 2.67,0 2.67,0 2.66,-2.67 2.66,-2.67 2.66,-2.67l2.67 0c0,5.33 7.99,13.32 13.31,23.98l8 10.65c2.66,2.67 2.66,2.67 5.32,5.33 0,0 0,0 0,0 2.67,-2.66 5.33,-2.66 8,-5.33 2.66,-5.32 5.32,-5.32 5.32,-7.99 0,0 0,0 2.67,0 2.67,5.33 5.32,10.66 7.99,13.32l0 2.67c-2.67,0 -2.67,2.66 -7.99,5.32 -2.67,2.67 -2.67,2.67 -2.67,2.67l-10.65 7.99c0,0 -2.67,2.66 -2.67,2.66 -2.66,-5.33 -5.32,-7.99 -10.65,-13.32 -2.67,-5.32 -5.33,-10.65 -7.99,-10.65 -2.67,-5.33 -7.99,-10.66 -10.66,-13.32 -2.66,-7.99 -7.99,-10.66 -10.65,-13.32 0,0 0,0 0,0zm-8 26.64l0 0c-5.32,-7.99 -7.99,-13.32 -7.99,-18.65l0 -2.66c0,0 2.67,-2.67 2.67,-2.67 2.66,-2.66 5.32,-2.66 7.99,-2.66 0,0 0,0 0,0 2.66,2.66 5.33,10.65 5.33,15.98 5.32,7.99 7.99,10.66 7.99,13.32 2.66,2.67 2.66,2.67 2.66,5.33 2.67,2.66 2.67,2.66 2.67,5.33 2.66,5.32 2.66,10.65 5.32,13.32 0,5.32 -5.32,13.32 -15.98,15.98 -2.66,2.66 -5.33,2.66 -7.99,2.66 -5.33,2.67 -7.99,0 -10.66,-2.66 0,-2.66 -2.66,-5.33 -7.99,-10.66 0,-2.66 0,-2.66 0,-5.32 -2.66,0 -2.66,-2.67 -2.66,-2.67 0,-5.33 -2.67,-10.65 -7.99,-15.98 -2.67,-5.33 -5.33,-7.99 -5.33,-10.66 0,-2.66 0,-2.66 0,-5.32 -2.67,0 -2.67,0 0,0 0,-2.67 0,-2.67 2.66,-2.67 5.33,-2.66 5.33,-2.66 7.99,-2.66 2.67,2.66 2.67,10.65 7.99,15.98 5.33,7.99 8,13.32 8,15.98 0,5.33 2.66,8 5.32,10.66 2.67,0 5.33,0 8,0 2.66,-2.66 2.66,-5.33 0,-13.32 0,-2.66 -2.67,-7.99 -8,-15.98zm-117.21 -2.67l0 0c2.66,0 2.66,0 2.66,-2.66 2.67,-2.66 7.99,-5.33 13.33,-5.33 0,0 0,0 0,2.67 0,2.66 0,7.99 2.66,13.32l-2.66 0c-2.67,0 -5.34,0 -8,0 0,0 0,5.32 -2.66,5.32 0,2.67 0,2.67 2.66,5.33 0,7.99 2.66,10.66 0,10.66 2.66,2.66 2.66,5.32 2.66,10.65 -2.66,5.33 -5.32,10.66 -7.99,15.99 -5.33,0 -10.65,2.66 -13.32,2.66 -2.66,0 -2.66,-2.66 -2.66,-5.33 -2.67,-5.33 -2.67,-7.99 0,-10.65 2.66,0 5.33,0 5.33,0 2.67,-2.67 2.67,-2.67 5.32,-8 0,-2.66 0,-5.32 -2.65,-5.32 0,-5.33 -2.67,-8 -2.67,-10.66 0,-2.66 0,-5.33 0,-10.65 2.67,-2.67 2.67,-5.33 7.99,-8zm58.61 -5.32l0 0c2.66,0 7.99,0 10.65,0 2.67,0 8,2.66 13.32,7.99 2.67,2.66 2.67,10.65 2.67,15.98 0,7.99 0,13.32 -2.67,18.65 -2.66,5.33 -7.99,7.99 -13.32,7.99 0,0 -2.66,0 -2.66,0 -2.66,-2.66 -5.33,-2.66 -5.33,-2.66 -2.66,0 -2.66,2.66 -2.66,2.66 0,2.66 0,2.66 0,7.99 0,2.67 0,2.67 0,5.33 0,0 0,0 -5.33,0 -2.66,0 -5.33,0 -5.33,0 -2.66,0 -2.66,0 -2.66,0 0,-2.66 0,-10.66 0,-15.98 0,-8 0,-13.32 0,-15.99 0,-7.99 0,-10.65 0,-18.64 0,-5.33 0,-8 0,-13.32 2.66,0 7.99,0 13.32,0zm-157.18 -370.3l0 0c10.66,-10.65 21.31,-15.98 37.3,-15.98l79.92 0 -5.33 23.98 -71.93 0 -39.96 82.58c-2.66,7.99 -2.66,13.32 8,13.32l15.98 0c7.99,0 13.32,-5.33 13.32,-13.32l15.98 -53.28 53.28 0 -15.98 90.58c-10.66,26.64 -23.98,39.96 -42.63,39.96l-122.53 0c-21.32,-2.67 -23.98,-10.67 -15.99,-29.31l90.57 -138.53zm263.73 -18.64l0 0c10.66,0 15.99,2.66 23.98,10.65l45.29 66.6c5.33,10.66 0,18.65 -7.99,18.65l-66.6 0 34.63 93.24 -77.26 0 -31.96 -186.48 79.91 -2.66zm101.24 117.21l0 0 47.95 71.93 -69.26 0 -37.3 -71.93 58.61 0z"/>
  <polygon class="fil2" points="4588.87,2252.15 4583.55,2180.22 4527.6,2180.22 4522.28,2252.15 "/>
  <path class="fil2" d="M4405.06 2348.05c0,-2.66 0,-2.66 -2.66,-7.99 -2.67,-5.33 -10.66,-7.99 -18.65,-7.99 -7.99,2.66 -15.98,5.32 -23.98,10.65 -7.99,5.33 -10.66,13.33 -13.32,18.65 -5.32,7.99 -2.66,13.32 2.66,18.65 0,5.32 2.67,7.99 10.66,10.66l0 2.66c0,0 0,2.66 2.67,5.33 5.33,-5.33 10.65,-10.66 15.98,-13.33 0,0 0,-2.66 2.67,-5.32 5.32,0 5.32,0 7.99,-2.66 0,0 0,0 0,-2.67 0,0 0,0 -2.67,-2.67 -2.66,0 -2.66,0 -5.32,-2.66 0,-2.66 0,-2.66 0,-2.66 0,0 0,0 -2.67,0 0,0 -2.66,2.66 -2.66,5.32 -5.34,2.67 -7.99,2.67 -7.99,2.67 -2.67,0 -5.33,-2.67 -5.33,-2.67 -2.67,-2.66 -2.67,-5.32 -2.67,-10.65 2.67,-2.67 5.33,-5.32 8,-7.99 5.32,-2.67 7.99,-5.33 10.65,-5.33 5.33,0 7.99,0 10.66,2.66 2.66,2.67 2.66,2.67 2.66,7.99 0,0 0,0 -2.66,2.67l0 2.66c0,2.67 2.66,2.67 5.32,0 5.33,-2.66 8,-2.66 8,-2.66l2.66 0c0,-2.67 0,-7.99 0,-13.32z"/>
  <path class="fil2" d="M4418.38 2366.7l-2.66 0c0,0 -2.67,5.32 -5.33,5.32 -5.33,2.67 -10.66,8 -18.65,13.32 -2.66,0 -5.33,5.34 -13.32,8 -5.33,5.33 -10.65,7.99 -10.65,10.66l-2.67 0c0,0 0,0 0,2.65 0,0 2.67,0 2.67,5.34 2.65,0 2.65,0 5.32,2.66 0,0 0,0 0,0 2.67,-2.66 5.33,-2.66 8,-5.33 5.32,-2.67 7.99,-2.67 7.99,-5.32l2.66 -2.67 0 5.32c0,0 0,0 0,0 -2.66,5.34 -5.33,10.67 -7.99,13.33 -2.66,0 -2.66,2.66 -5.33,2.66l0 2.67c2.67,2.66 2.67,5.32 5.33,7.99l2.66 2.66c2.67,0 2.67,0 2.67,0 0,0 2.66,-2.66 5.32,-10.65l10.66 -10.66c2.66,0 7.99,0 10.66,0 2.66,-2.66 2.66,-2.66 7.99,-5.33 5.32,-2.67 7.99,-7.99 7.99,-13.32 0,0 0,0 0,-2.66 2.66,-2.66 0,-8 -2.67,-10.66 0,-2.66 -2.66,-5.32 -5.32,-7.99l-5.33 -7.99c0,0 0,0 0,0zm-5.33 18.64l0 0c2.67,0 2.67,0 2.67,0 2.66,2.67 2.66,8 2.66,8 0,0 0,5.33 -5.33,5.33 -5.33,5.33 -7.99,2.66 -10.65,0 0,0 0,-2.67 0,-5.33 -2.67,0 -2.67,0 0,0l2.66 -2.66c2.66,-5.34 7.99,-5.34 7.99,-5.34z"/>
  <path class="fil7" d="M4415.72 2385.34c0,0 0,0 -2.67,0 0,0 -5.33,0 -7.99,5.34l-2.66 2.66c-2.67,0 -2.67,0 0,0 0,2.66 0,5.33 0,5.33 2.66,2.66 5.32,5.33 10.65,0 5.33,0 5.33,-5.33 5.33,-5.33 0,0 0,-5.33 -2.66,-8z"/>
  <path class="fil2" d="M4442.35 2398.67c0,0 0,0 0,2.66 -2.66,0 -2.66,0 -2.66,2.67 -2.66,2.65 -7.99,2.65 -10.66,7.99 0,0 0,0 0,0 -5.32,5.33 -7.99,7.99 -10.65,10.65 0,2.67 -2.66,2.67 -2.66,5.33 -2.67,2.66 -2.67,2.66 -5.33,5.33 -5.33,2.66 -5.33,5.33 -7.99,7.99 -2.67,5.33 -2.67,5.33 0,10.66 0,2.66 2.66,5.32 5.32,7.99 8,5.33 13.32,10.65 21.31,5.33 2.67,0 5.33,-2.67 13.32,-8 0,0 0,-2.66 2.67,-5.32 0,0 0,0 0,-2.67 2.66,-2.66 7.99,-5.33 13.32,-10.65 5.33,-5.33 10.65,-8 13.32,-10.66 0,-2.66 0,-2.66 0,-2.66 -2.67,0 -2.67,-2.67 -5.33,-2.67 -2.66,-2.66 -5.33,-2.66 -5.33,-2.66l-2.66 0c0,2.66 -5.33,5.33 -13.32,13.32 -5.33,5.33 -10.66,13.32 -13.32,13.32 -2.67,5.33 -7.99,5.33 -13.32,2.66 0,0 -2.66,-2.66 0,-5.33 0,0 0,-5.32 5.33,-7.99 5.32,-2.66 7.99,-5.33 13.32,-13.32 7.99,-5.32 10.65,-10.65 13.32,-10.65l0 -2.67c-2.67,-2.67 -2.67,-2.67 -5.33,-2.67 0,-2.65 0,-5.32 -2.67,-7.98z"/>
  <path class="fil2" d="M4442.35 2486.58c2.67,2.66 5.33,2.66 5.33,2.66 2.67,0 2.67,0 5.33,-2.66 0,0 2.66,-2.67 2.66,-2.67l5.33 2.67 7.99 5.32c0,0 0,5.33 -2.66,8 0,0 0,0 0,2.66 2.66,0 2.66,0 5.33,2.66 2.66,0 2.66,2.67 5.33,5.33l2.66 -2.66c0,-2.67 2.66,-10.66 5.33,-31.97 2.66,-2.66 2.66,-10.65 5.32,-13.32 2.67,-7.99 2.67,-13.32 5.33,-15.98 0,0 0,-2.67 0,-2.67 0,-2.66 0,-2.66 0,-5.32 -2.66,0 -2.66,0 -2.66,0 -2.67,0 -2.67,0 -5.33,-2.67l-2.66 0 0 -2.66 -2.67 2.66c-2.66,2.67 -10.65,10.66 -23.97,23.98 -13.32,13.32 -18.65,21.31 -18.65,23.97 0,0 0,2.67 2.66,2.67zm31.97 -21.31l0 0c0,5.32 0,7.99 -2.66,7.99l0 2.66c0,0 0,0 0,-2.66 -2.67,0 -2.67,0 -2.67,0 -2.66,0 -2.66,0 -2.66,-2.67 2.66,0 2.66,-2.66 5.33,-7.99 2.66,-2.66 5.33,-2.66 7.99,-5.33 0,2.67 -2.66,5.33 -5.33,8z"/>
  <path class="fil7" d="M4471.66 2473.26c2.66,0 2.66,-2.67 2.66,-7.99 2.67,-2.67 5.33,-5.33 5.33,-8 -2.66,2.67 -5.33,2.67 -7.99,5.33 -2.67,5.33 -2.67,7.99 -5.33,7.99 0,2.67 0,2.67 2.66,2.67 0,0 0,0 2.67,0 0,2.66 0,2.66 0,2.66l0 -2.66z"/>
  <path class="fil2" d="M4751.38 2385.34c7.99,-2.66 13.32,-5.32 15.98,-13.32 5.33,-5.32 5.33,-10.65 0,-18.64 -2.66,-5.33 -7.99,-13.32 -18.65,-15.99 -10.65,-5.32 -15.98,-5.32 -23.97,-5.32 -10.66,0 -13.32,2.66 -15.99,10.65 -5.32,5.33 -2.67,13.33 0,18.65 2.67,5.33 10.65,10.65 15.99,15.99 0,0 0,0 2.66,2.66 7.99,2.66 15.98,5.32 23.98,5.32zm0 -18.64l0 0c0,2.66 -2.67,5.32 -5.33,5.32 -5.33,0 -7.99,-2.66 -13.32,-5.32 -5.33,0 -7.99,-2.67 -7.99,-8 -2.67,-2.65 -2.67,-5.32 -2.67,-7.99 2.67,-2.66 5.33,-5.32 10.66,-5.32 2.66,0 5.33,0 10.65,2.66 5.33,2.66 8,5.33 8,8 2.66,2.65 2.66,5.32 0,10.65z"/>
  <path class="fil7" d="M4746.05 2372.02c2.66,0 5.33,-2.66 5.33,-5.32 2.66,-5.33 2.66,-8 0,-10.65 0,-2.67 -2.67,-5.34 -8,-8 -5.32,-2.66 -7.99,-2.66 -10.65,-2.66 -5.33,0 -7.99,2.66 -10.66,5.32 0,2.67 0,5.34 2.67,7.99 0,5.33 2.66,8 7.99,8 5.33,2.66 7.99,5.32 13.32,5.32z"/>
  <path class="fil2" d="M4735.39 2419.98c2.67,-5.33 2.67,-10.66 2.67,-18.65 -2.67,-7.99 -10.66,-13.32 -15.99,-21.31 -2.67,0 -7.99,-5.33 -10.65,-5.33 -5.34,-2.67 -10.66,-2.67 -13.33,-2.67 -5.33,0 -7.98,2.67 -13.32,8 0,0 -2.66,2.66 -5.32,7.99 -2.67,5.33 -5.33,5.33 -5.33,5.33 -2.67,2.66 -2.67,2.66 0,5.33 2.66,0 7.99,2.66 10.65,7.98 7.99,5.34 13.32,8 13.32,10.67 2.67,2.66 7.99,2.66 10.66,7.99 0,0 0,0 2.67,0 2.66,7.99 7.98,10.65 10.65,10.65 2.67,2.67 2.67,2.67 2.67,0 0,0 0,-2.66 0,-2.66 2.66,0 2.66,-2.67 5.32,-2.67 2.67,-5.32 5.33,-7.99 5.33,-10.65zm-42.63 -23.98l0 0c0,-2.66 0,-2.66 2.67,-5.32 2.66,-5.34 2.66,-5.34 8,-5.34 5.32,0 7.99,2.67 10.65,8 5.32,2.66 7.99,5.33 10.66,7.99 0,5.32 0,10.66 -2.67,13.32 0,2.67 -2.67,5.33 -2.67,2.67 -2.65,-2.67 -5.32,-2.67 -7.98,-5.33 -2.67,-2.67 -2.67,-5.34 -5.34,-5.34 0,0 -5.32,-2.65 -7.99,-5.32 0,-2.66 -2.66,-2.66 -5.33,-5.33z"/>
  <path class="fil7" d="M4695.43 2390.68c-2.67,2.66 -2.67,2.66 -2.67,5.32 2.67,2.67 5.33,2.67 5.33,5.33 2.67,2.67 7.99,5.32 7.99,5.32 2.67,0 2.67,2.67 5.34,5.34 2.66,2.66 5.33,2.66 7.98,5.33 0,2.66 2.67,0 2.67,-2.67 2.67,-2.66 2.67,-8 2.67,-13.32 -2.67,-2.66 -5.34,-5.33 -10.66,-7.99 -2.66,-5.33 -5.33,-8 -10.65,-8 -5.34,0 -5.34,0 -8,5.34z"/>
  <path class="fil2" d="M4668.79 2401.33l-2.66 0c0,0 0,0 -2.67,2.67 -2.66,2.65 -2.66,2.65 -2.66,2.65 0,0 0,0 -2.67,0 0,2.67 0,2.67 0,5.34 0,2.66 5.33,7.99 10.66,10.65 2.66,2.67 7.99,7.99 10.66,10.66 0,0 5.32,5.33 10.66,13.32 0,0 0,0 2.65,0 0,0 2.67,2.66 2.67,5.33l5.33 5.32c0,2.67 0,2.67 0,0 2.67,0 5.32,0 7.99,-5.32 0,0 2.67,-2.67 2.67,-2.67l0 -2.66c-2.67,0 -5.34,-5.33 -13.33,-10.66 -2.66,-5.33 -7.98,-10.65 -10.65,-13.32 -2.67,-2.66 -5.33,-5.32 -7.99,-10.65 -5.33,-5.34 -8,-7.99 -10.66,-10.66z"/>
  <path class="fil2" d="M4631.5 2430.63c0,0 0,0 0,2.67 0,0 0,0 0,0 2.66,2.66 7.99,5.33 10.65,13.32 2.67,2.66 7.99,7.99 10.66,13.32 2.66,0 5.32,5.33 7.99,10.65 5.33,5.33 7.99,7.99 10.65,13.32 0,0 2.67,-2.66 2.67,-2.66l10.65 -7.99c0,0 0,0 2.67,-2.67 5.32,-2.66 5.32,-5.32 7.99,-5.32l0 -2.67c-2.67,-2.66 -5.32,-7.99 -7.99,-13.32 -2.67,0 -2.67,0 -2.67,0 0,2.67 -2.66,2.67 -5.32,7.99 -2.67,2.67 -5.33,2.67 -8,5.33 0,0 0,0 0,0 -2.66,-2.66 -2.66,-2.66 -5.32,-5.33l-8 -10.65c-5.32,-10.66 -13.31,-18.65 -13.31,-23.98l-2.67 0c0,0 0,0 -2.66,2.67 0,0 0,0 -2.67,0 0,2.66 -2.66,2.66 -2.66,5.32 -2.66,0 -2.66,0 -2.66,0z"/>
  <path class="fil2" d="M4615.51 2441.29c0,5.33 2.67,10.66 7.99,18.65 5.33,7.99 8,13.32 8,15.98 2.66,7.99 2.66,10.66 0,13.32 -2.67,0 -5.33,0 -8,0 -2.66,-2.66 -5.32,-5.33 -5.32,-10.66 0,-2.66 -2.67,-7.99 -8,-15.98 -5.32,-5.33 -5.32,-13.32 -7.99,-15.98 -2.66,0 -2.66,0 -7.99,2.66 -2.66,0 -2.66,0 -2.66,2.67 -2.67,0 -2.67,0 0,0 0,2.66 0,2.66 0,5.32 0,2.67 2.66,5.33 5.33,10.66 5.32,5.33 7.99,10.65 7.99,15.98 0,0 0,2.67 2.66,2.67 0,2.66 0,2.66 0,5.32 5.33,5.33 7.99,8 7.99,10.66 2.67,2.66 5.33,5.33 10.66,2.66 2.66,0 5.33,0 7.99,-2.66 10.66,-2.66 15.98,-10.66 15.98,-15.98 -2.66,-2.67 -2.66,-8 -5.32,-13.32 0,-2.67 0,-2.67 -2.67,-5.33 0,-2.66 0,-2.66 -2.66,-5.33 0,-2.66 -2.67,-5.33 -7.99,-13.32 0,-5.33 -2.67,-13.32 -5.33,-15.98 0,0 0,0 0,0 -2.67,0 -5.33,0 -7.99,2.66 0,0 -2.67,2.67 -2.67,2.67l0 2.66z"/>
  <path class="fil2" d="M4508.95 2454.61c0,2.66 0,2.66 -2.66,2.66 -5.32,2.67 -5.32,5.33 -7.99,8 0,5.32 0,7.99 0,10.65 0,2.66 2.67,5.33 2.67,10.66 2.65,0 2.65,2.66 2.65,5.32 -2.65,5.33 -2.65,5.33 -5.32,8 0,0 -2.67,0 -5.33,0 -2.67,2.66 -2.67,5.32 0,10.65 0,2.67 0,5.33 2.66,5.33 2.67,0 7.99,-2.66 13.32,-2.66 2.67,-5.33 5.33,-10.66 7.99,-15.99 0,-5.33 0,-7.99 -2.66,-10.65 2.66,0 0,-2.67 0,-10.66 -2.66,-2.66 -2.66,-2.66 -2.66,-5.33 2.66,0 2.66,-5.32 2.66,-5.32 2.66,0 5.33,0 8,0l2.66 0c-2.66,-5.33 -2.66,-10.66 -2.66,-13.32 0,-2.67 0,-2.67 0,-2.67 -5.34,0 -10.66,2.67 -13.33,5.33z"/>
  <path class="fil2" d="M4575.55 2451.95c-2.66,0 -7.99,0 -10.65,0 -5.33,0 -10.66,0 -13.32,0 0,5.32 0,7.99 0,13.32 0,7.99 0,10.65 0,18.64 0,2.67 0,7.99 0,15.99 0,5.32 0,13.32 0,15.98 0,0 0,0 2.66,0 0,0 2.67,0 5.33,0 5.33,0 5.33,0 5.33,0 0,-2.66 0,-2.66 0,-5.33 0,-5.33 0,-5.33 0,-7.99 0,0 0,-2.66 2.66,-2.66 0,0 2.67,0 5.33,2.66 0,0 2.66,0 2.66,0 5.33,0 10.66,-2.66 13.32,-7.99 2.67,-5.33 2.67,-10.66 2.67,-18.65 0,-5.33 0,-13.32 -2.67,-15.98 -5.32,-5.33 -10.65,-7.99 -13.32,-7.99zm-2.66 13.32l0 0c5.33,0 5.33,5.32 5.33,10.65 0,7.99 0,10.66 -5.33,10.66 -5.33,0 -7.99,0 -7.99,0 0,0 0,-2.67 0,-2.67 0,-5.33 0,-5.33 0,-7.99 0,-5.33 0,-7.99 0,-10.65l7.99 0z"/>
  <path class="fil7" d="M4578.22 2475.92c0,-5.33 0,-10.65 -5.33,-10.65l-7.99 0c0,2.66 0,5.32 0,10.65 0,2.66 0,2.66 0,7.99 0,0 0,2.67 0,2.67 0,0 2.66,0 7.99,0 5.33,0 5.33,-2.67 5.33,-10.66z"/>
  <path class="fil2" d="M4445.02 2065.67c-15.99,0 -26.64,5.33 -37.3,15.98l-90.57 138.53c-7.99,18.64 -5.33,26.64 15.99,29.31l122.53 0c18.65,0 31.97,-13.32 42.63,-39.96l15.98 -90.58 -53.28 0 -15.98 53.28c0,7.99 -5.33,13.32 -13.32,13.32l-15.98 0c-10.66,0 -10.66,-5.33 -8,-13.32l39.96 -82.58 71.93 0 5.33 -23.98 -79.92 0z"/>
  <path class="fil2" d="M4695.43 2073.66c-7.99,-7.99 -13.32,-10.65 -23.98,-10.65l-79.91 2.66 31.96 186.48 77.26 0 -34.63 -93.24 66.6 0c7.99,0 13.32,-7.99 7.99,-18.65l-45.29 -66.6zm-21.31 26.64l0 0 7.99 10.66c2.66,10.65 2.66,15.98 -7.99,15.98l-21.31 0 -13.32 -39.96 18.64 0c10.66,0 15.99,5.33 15.99,13.32z"/>
  <path class="fil7" d="M4682.11 2110.96l-7.99 -10.66c0,-7.99 -5.33,-13.32 -15.99,-13.32l-18.64 0 13.32 39.96 21.31 0c10.65,0 10.65,-5.33 7.99,-15.98z"/>
  <polygon class="fil2" points="4820.64,2252.15 4772.69,2180.22 4714.08,2180.22 4751.38,2252.15 "/>
 </g>
</svg>
